<svg width="79" height="86" viewBox="0 0 79 86" fill="none" xmlns="http://www.w3.org/2000/svg">
<g filter="url(#filter0_f_48_3794)">
<path d="M43.6004 6.10001C49.0004 11.5 54.4004 16.9 59.8004 22.2C60.6004 23 61.3004 23.7 62.1004 24.5C62.5004 24.9 62.7004 25.3 62.5004 25.8C62.3004 26.3 61.8004 26.5 61.3004 26.5C59.4004 26.5 57.4004 26.5 55.5004 26.5C55.2004 26.5 55.0004 26.5 54.7004 26.5C54.7004 26.9 54.7004 27.1 54.7004 27.4C54.7004 31.1 54.7004 34.9 54.7004 38.6C54.7004 38.9 54.7004 39.2 54.6004 39.5C54.4004 40 54.0004 40.2 53.5004 40.2C53.0004 40.1 52.7004 39.8 52.6004 39.3C52.6004 39.1 52.6004 38.9 52.6004 38.7C52.6004 34.4 52.6004 30.1 52.6004 25.8C52.6004 24.6 52.9004 24.3 54.1004 24.3C55.6004 24.3 57.2004 24.3 58.7004 24.3C58.7004 24.3 58.8004 24.3 58.7004 24.3C53.6004 19.2 48.4004 14 43.3004 8.89999C38.3004 13.9 33.1004 19.1 27.9004 24.3C28.1004 24.3 28.3004 24.3 28.5004 24.3C29.9004 24.3 31.4004 24.3 32.8004 24.3C33.7004 24.3 34.1004 24.7 34.1004 25.6C34.1004 25.7 34.1004 25.9 34.1004 26C34.1004 43.1 34.1004 60.2 34.1004 77.3C34.1004 78 34.0004 78.6 33.5004 79C33.2004 79 32.9004 79 32.6004 79C32.0004 78.6 31.9004 78 31.9004 77.3C31.9004 60.7 31.9004 44.1 31.9004 27.5C31.9004 27.2 31.9004 26.8 31.9004 26.4C31.6004 26.4 31.3004 26.4 31.1004 26.4C29.2004 26.4 27.2004 26.4 25.3004 26.4C24.8004 26.4 24.3004 26.3 24.1004 25.7C23.9004 25.2 24.1004 24.7 24.5004 24.4C30.5004 18.4 36.5004 12.4 42.4004 6.5C42.6004 6.3 42.7004 6.2 42.9004 6C43.0004 6.1 43.3004 6.10001 43.6004 6.10001Z" fill="#DF00FF"/>
<path d="M53.0005 79.1C51.6005 78.8 50.1004 78.6 48.7004 78.1C41.3004 75.7 35.6004 68.3 36.4004 59.2C37.1004 51.5 42.7005 44.8 50.8005 43.1C61.4005 40.8 71.6004 48.3 72.7004 59.1C73.7004 69.1 66.6005 77.9 56.6005 79C56.4005 79 56.3005 79.1 56.1005 79.1C55.1005 79.1 54.0005 79.1 53.0005 79.1ZM54.5005 44.9C45.6005 44.9 38.5005 52.1 38.5005 61C38.5005 69.9 45.7005 77.1 54.6005 77.1C63.5005 77.1 70.7005 69.8 70.6005 61C70.6005 52 63.4004 44.8 54.5005 44.9Z" fill="#DF00FF"/>
<path d="M15.3004 79.1C14.7004 78.7 14.6004 78.2 14.6004 77.6C14.6004 70 14.6004 62.5 14.6004 54.9C14.6004 54.6 14.6004 54.3 14.6004 53.9C14.3004 53.9 14.1004 53.9 13.8004 53.9C11.9004 53.9 10.0004 53.9 8.00038 53.9C7.40038 53.9 6.90038 53.8 6.70038 53.2C6.50038 52.6 6.80038 52.2 7.20038 51.8C13.1004 45.9 19.1004 39.9 25.0004 34C25.7004 33.3 26.3004 33.2 27.0004 34C27.6004 34.6 28.3004 35.3 28.9004 35.9C29.4004 36.4 29.5004 37.1 29.0004 37.5C28.6004 37.9 27.9004 37.9 27.4004 37.4C26.9004 37 26.5004 36.5 26.2004 36.1C20.9004 41.4 15.8004 46.5 10.6004 51.7C12.0004 51.7 13.5004 51.7 15.0004 51.7C15.3004 51.7 15.6004 51.7 15.9004 51.7C16.5004 51.8 16.8004 52.1 16.9004 52.7C16.9004 52.9 16.9004 53 16.9004 53.2C16.9004 61.3 16.9004 69.4 16.9004 77.5C16.9004 78.2 16.7004 78.7 16.2004 79C15.8004 79.1 15.6004 79.1 15.3004 79.1Z" fill="#DF00FF"/>
<path d="M45.5005 55.1C45.5005 53.8 45.9005 52.7 46.7005 51.8C48.4005 49.9 51.2005 49.9 52.8005 52C54.2005 53.8 54.3005 56.5 52.8005 58.3C51.1005 60.4 48.2005 60.5 46.5005 58.3C45.9005 57.4 45.5005 56.3 45.5005 55.1ZM47.7005 55.1C47.7005 56.5 48.6005 57.7 49.7005 57.7C50.9005 57.7 51.8005 56.5 51.8005 55.1C51.8005 53.7 50.8005 52.5 49.7005 52.5C48.6005 52.5 47.7005 53.7 47.7005 55.1Z" fill="#DF00FF"/>
<path d="M59.4003 71.5C57.0003 71.5 55.1003 69.3 55.2003 66.6C55.2003 65.5 55.6003 64.5 56.3003 63.6C57.9003 61.6 60.8003 61.5 62.5003 63.5C64.1003 65.3 64.1003 68.3 62.4003 70.1C61.6003 71 60.6003 71.5 59.4003 71.5ZM61.5003 66.8C61.5003 65.4 60.6003 64.2 59.4003 64.2C58.3003 64.2 57.3003 65.3 57.3003 66.7C57.3003 66.8 57.3003 66.9 57.3003 67C57.4003 68.4 58.3003 69.4 59.4003 69.4C60.6003 69.3 61.5003 68.2 61.5003 66.8Z" fill="#DF00FF"/>
<path d="M51.1004 70.3C50.3004 70.3 49.9004 69.6 50.2004 68.8C50.4004 68.2 50.7004 67.6 50.9004 67C53.0004 62 55.1004 57.1 57.2004 52.1C57.3004 51.9 57.4004 51.7 57.5004 51.5C57.8004 51 58.3004 50.9 58.8004 51.1C59.3004 51.3 59.5004 51.7 59.4004 52.3C59.4004 52.5 59.3004 52.8 59.2004 53C56.9004 58.4 54.7004 63.8 52.4004 69.2C52.0004 69.8 51.8004 70.3 51.1004 70.3Z" fill="#DF00FF"/>
</g>
<path d="M43.6004 6.10001C49.0004 11.5 54.4004 16.9 59.8004 22.2C60.6004 23 61.3004 23.7 62.1004 24.5C62.5004 24.9 62.7004 25.3 62.5004 25.8C62.3004 26.3 61.8004 26.5 61.3004 26.5C59.4004 26.5 57.4004 26.5 55.5004 26.5C55.2004 26.5 55.0004 26.5 54.7004 26.5C54.7004 26.9 54.7004 27.1 54.7004 27.4C54.7004 31.1 54.7004 34.9 54.7004 38.6C54.7004 38.9 54.7004 39.2 54.6004 39.5C54.4004 40 54.0004 40.2 53.5004 40.2C53.0004 40.1 52.7004 39.8 52.6004 39.3C52.6004 39.1 52.6004 38.9 52.6004 38.7C52.6004 34.4 52.6004 30.1 52.6004 25.8C52.6004 24.6 52.9004 24.3 54.1004 24.3C55.6004 24.3 57.2004 24.3 58.7004 24.3C58.7004 24.3 58.8004 24.3 58.7004 24.3C53.6004 19.2 48.4004 14 43.3004 8.89999C38.3004 13.9 33.1004 19.1 27.9004 24.3C28.1004 24.3 28.3004 24.3 28.5004 24.3C29.9004 24.3 31.4004 24.3 32.8004 24.3C33.7004 24.3 34.1004 24.7 34.1004 25.6C34.1004 25.7 34.1004 25.9 34.1004 26C34.1004 43.1 34.1004 60.2 34.1004 77.3C34.1004 78 34.0004 78.6 33.5004 79C33.2004 79 32.9004 79 32.6004 79C32.0004 78.6 31.9004 78 31.9004 77.3C31.9004 60.7 31.9004 44.1 31.9004 27.5C31.9004 27.2 31.9004 26.8 31.9004 26.4C31.6004 26.4 31.3004 26.4 31.1004 26.4C29.2004 26.4 27.2004 26.4 25.3004 26.4C24.8004 26.4 24.3004 26.3 24.1004 25.7C23.9004 25.2 24.1004 24.7 24.5004 24.4C30.5004 18.4 36.5004 12.4 42.4004 6.5C42.6004 6.3 42.7004 6.2 42.9004 6C43.0004 6.1 43.3004 6.10001 43.6004 6.10001Z" fill="white"/>
<path d="M53.0005 79.1C51.6005 78.8 50.1004 78.6 48.7004 78.1C41.3004 75.7 35.6004 68.3 36.4004 59.2C37.1004 51.5 42.7005 44.8 50.8005 43.1C61.4005 40.8 71.6004 48.3 72.7004 59.1C73.7004 69.1 66.6005 77.9 56.6005 79C56.4005 79 56.3005 79.1 56.1005 79.1C55.1005 79.1 54.0005 79.1 53.0005 79.1ZM54.5005 44.9C45.6005 44.9 38.5005 52.1 38.5005 61C38.5005 69.9 45.7005 77.1 54.6005 77.1C63.5005 77.1 70.7005 69.8 70.6005 61C70.6005 52 63.4004 44.8 54.5005 44.9Z" fill="white"/>
<path d="M15.3004 79.1C14.7004 78.7 14.6004 78.2 14.6004 77.6C14.6004 70 14.6004 62.5 14.6004 54.9C14.6004 54.6 14.6004 54.3 14.6004 53.9C14.3004 53.9 14.1004 53.9 13.8004 53.9C11.9004 53.9 10.0004 53.9 8.00038 53.9C7.40038 53.9 6.90038 53.8 6.70038 53.2C6.50038 52.6 6.80038 52.2 7.20038 51.8C13.1004 45.9 19.1004 39.9 25.0004 34C25.7004 33.3 26.3004 33.2 27.0004 34C27.6004 34.6 28.3004 35.3 28.9004 35.9C29.4004 36.4 29.5004 37.1 29.0004 37.5C28.6004 37.9 27.9004 37.9 27.4004 37.4C26.9004 37 26.5004 36.5 26.2004 36.1C20.9004 41.4 15.8004 46.5 10.6004 51.7C12.0004 51.7 13.5004 51.7 15.0004 51.7C15.3004 51.7 15.6004 51.7 15.9004 51.7C16.5004 51.8 16.8004 52.1 16.9004 52.7C16.9004 52.9 16.9004 53 16.9004 53.2C16.9004 61.3 16.9004 69.4 16.9004 77.5C16.9004 78.2 16.7004 78.7 16.2004 79C15.8004 79.1 15.6004 79.1 15.3004 79.1Z" fill="white"/>
<path d="M45.5005 55.1C45.5005 53.8 45.9005 52.7 46.7005 51.8C48.4005 49.9 51.2005 49.9 52.8005 52C54.2005 53.8 54.3005 56.5 52.8005 58.3C51.1005 60.4 48.2005 60.5 46.5005 58.3C45.9005 57.4 45.5005 56.3 45.5005 55.1ZM47.7005 55.1C47.7005 56.5 48.6005 57.7 49.7005 57.7C50.9005 57.7 51.8005 56.5 51.8005 55.1C51.8005 53.7 50.8005 52.5 49.7005 52.5C48.6005 52.5 47.7005 53.7 47.7005 55.1Z" fill="white"/>
<path d="M59.4003 71.5C57.0003 71.5 55.1003 69.3 55.2003 66.6C55.2003 65.5 55.6003 64.5 56.3003 63.6C57.9003 61.6 60.8003 61.5 62.5003 63.5C64.1003 65.3 64.1003 68.3 62.4003 70.1C61.6003 71 60.6003 71.5 59.4003 71.5ZM61.5003 66.8C61.5003 65.4 60.6003 64.2 59.4003 64.2C58.3003 64.2 57.3003 65.3 57.3003 66.7C57.3003 66.8 57.3003 66.9 57.3003 67C57.4003 68.4 58.3003 69.4 59.4003 69.4C60.6003 69.3 61.5003 68.2 61.5003 66.8Z" fill="white"/>
<path d="M51.1004 70.3C50.3004 70.3 49.9004 69.6 50.2004 68.8C50.4004 68.2 50.7004 67.6 50.9004 67C53.0004 62 55.1004 57.1 57.2004 52.1C57.3004 51.9 57.4004 51.7 57.5004 51.5C57.8004 51 58.3004 50.9 58.8004 51.1C59.3004 51.3 59.5004 51.7 59.4004 52.3C59.4004 52.5 59.3004 52.8 59.2004 53C56.9004 58.4 54.7004 63.8 52.4004 69.2C52.0004 69.8 51.8004 70.3 51.1004 70.3Z" fill="white"/>
<g style="mix-blend-mode:color-dodge">
<path d="M75.8996 54.7L76.4996 68.9L60.1996 50.7L59.5996 36.5L75.8996 54.7Z" fill="black"/>
<path d="M68.3996 59.8C64.0996 55 60.4997 47.9 60.2997 44C60.0997 40.1 63.4997 40.8 67.7997 45.7C72.0997 50.5 75.6996 57.6 75.8996 61.5C75.9996 65.3 72.6996 64.6 68.3996 59.8Z" fill="black"/>
<path d="M68.3996 59.7C64.0996 54.9 60.4997 47.8001 60.2997 43.9001C60.0997 40.0001 63.4997 40.7 67.7997 45.6C72.0997 50.4 75.6996 57.5001 75.8996 61.4001C75.9996 65.3001 72.6996 64.6 68.3996 59.7Z" fill="black"/>
<path d="M68.3995 59.7C64.0995 54.9 60.4995 47.9 60.3995 44C60.1995 40.1 63.5995 40.9 67.7995 45.6C72.0995 50.4 75.6995 57.4 75.7995 61.3C75.9995 65.2 72.5995 64.5 68.3995 59.7Z" fill="black"/>
<path d="M68.3995 59.7C64.0995 54.9 60.5995 47.9 60.3995 44.1C60.1995 40.2 63.5995 41 67.7995 45.7C72.0995 50.5 75.5995 57.5 75.7995 61.3C75.8995 65.2 72.5995 64.5 68.3995 59.7Z" fill="#010101"/>
<path d="M68.3995 59.7C64.1995 54.9 60.5995 48 60.3995 44.1C60.1995 40.2 63.4995 41 67.7995 45.7C71.9995 50.5 75.5995 57.4 75.7995 61.3C75.8995 65.1 72.5995 64.4 68.3995 59.7Z" fill="#010101"/>
<path d="M68.3996 59.6C64.1996 54.9 60.5996 47.9 60.4996 44.1C60.2996 40.3 63.5996 41 67.7996 45.7C71.9996 50.4 75.5996 57.4 75.6996 61.2C75.8996 65.1 72.5996 64.4 68.3996 59.6Z" fill="#020202"/>
<path d="M68.3996 59.6C64.1996 54.9 60.6996 48 60.4996 44.1C60.2996 40.3 63.5996 41 67.7996 45.7C71.9996 50.4 75.4996 57.3 75.6996 61.2C75.7996 65 72.5996 64.3 68.3996 59.6Z" fill="#020202"/>
<path d="M68.3996 59.6C64.1996 54.9 60.6996 48 60.4996 44.2C60.2996 40.4 63.5996 41.1 67.7996 45.8C71.9996 50.5 75.4996 57.4 75.6996 61.2C75.7996 65 72.4996 64.3 68.3996 59.6Z" fill="#020202"/>
<path d="M68.3997 59.6C64.1997 54.9 60.6997 48.1 60.5997 44.3C60.3997 40.5 63.6997 41.2 67.8997 45.9C72.0997 50.6 75.5997 57.4 75.6997 61.2C75.7997 64.9 72.4997 64.2 68.3997 59.6Z" fill="#030303"/>
<path d="M68.3997 59.5C64.1997 54.8 60.7997 48 60.5997 44.2C60.3997 40.4 63.6997 41.1 67.7997 45.8C71.9997 50.5 75.3997 57.3 75.5997 61.1C75.6997 64.9 72.4997 64.2 68.3997 59.5Z" fill="#030303"/>
<path d="M68.3997 59.5C64.2997 54.9 60.7997 48.1 60.5997 44.3C60.3997 40.5 63.6997 41.3 67.7997 45.9C71.8997 50.5 75.3997 57.4 75.5997 61.1C75.6997 64.8 72.4997 64.1 68.3997 59.5Z" fill="#040404"/>
<path d="M68.3996 59.5C64.2996 54.9 60.7996 48.1 60.6996 44.4001C60.4996 40.7001 63.7996 41.4 67.8996 46C71.9995 50.6 75.4996 57.4 75.5996 61.1C75.6996 64.8 72.4995 64.1 68.3996 59.5Z" fill="#040404"/>
<path d="M68.3996 59.4C64.2996 54.8 60.7996 48 60.6996 44.3C60.4996 40.6 63.6996 41.3 67.7996 45.9C71.8996 50.5 75.3996 57.3 75.4996 61C75.6996 64.7 72.4996 64 68.3996 59.4Z" fill="#050505"/>
<path d="M68.3996 59.4C64.2996 54.8 60.8996 48.1 60.6996 44.4001C60.4996 40.7001 63.6996 41.4 67.7996 46C71.8996 50.6 75.2996 57.3 75.4996 61C75.5996 64.7 72.3996 64 68.3996 59.4Z" fill="#050505"/>
<path d="M68.2997 59.4C64.1997 54.8 60.7997 48.1 60.5997 44.4001C60.3997 40.7001 63.5997 41.4 67.6997 46C71.7997 50.6 75.1997 57.3 75.3997 61C75.5997 64.6 72.3997 63.9 68.2997 59.4Z" fill="#060606"/>
<path d="M68.2996 59.4C64.1996 54.9 60.7996 48.2 60.6996 44.5C60.4996 40.8 63.6996 41.5 67.7996 46.1C71.8996 50.6 75.2996 57.3 75.3996 61C75.5996 64.6 72.3996 63.9 68.2996 59.4Z" fill="#070707"/>
<path d="M68.2996 59.3C64.2996 54.8 60.8996 48.1 60.6996 44.5C60.4996 40.8 63.6996 41.5 67.6996 46.1C71.6996 50.6 75.0996 57.3 75.2996 60.9C75.4996 64.5 72.3996 63.9 68.2996 59.3Z" fill="#070707"/>
<path d="M68.2996 59.3C64.2996 54.8 60.8996 48.2 60.6996 44.5C60.4996 40.8 63.6996 41.5 67.6996 46C71.6996 50.5 75.0996 57.1 75.2996 60.8C75.4996 64.5 72.3996 63.8 68.2996 59.3Z" fill="#080808"/>
<path d="M68.2997 59.3C64.2997 54.8 60.8997 48.2 60.7997 44.6C60.5997 41 63.7997 41.7 67.7997 46.1C71.7997 50.6 75.1997 57.2 75.2997 60.8C75.4997 64.5 72.2997 63.8 68.2997 59.3Z" fill="#080808"/>
<path d="M68.2997 59.2C64.2997 54.7 60.9997 48.2 60.7997 44.5C60.5997 40.9 63.7997 41.6 67.6997 46C71.6997 50.5 74.9997 57 75.1997 60.7C75.3997 64.4 72.2997 63.7 68.2997 59.2Z" fill="#090909"/>
<path d="M68.2997 59.2C64.2997 54.7 60.9997 48.2 60.7997 44.6C60.5997 41 63.6997 41.7 67.6997 46.1C71.6997 50.6 74.9997 57.1 75.1997 60.7C75.3997 64.4 72.2997 63.7 68.2997 59.2Z" fill="#0A0A0A"/>
<path d="M68.2995 59.2C64.3995 54.8 60.9995 48.3 60.8995 44.7C60.6995 41.1 63.7995 41.8 67.7995 46.2C71.7995 50.6 75.0995 57.1 75.1995 60.7C75.3995 64.3 72.2995 63.6 68.2995 59.2Z" fill="#0A0A0A"/>
<path d="M68.2996 59.2C64.3996 54.8 61.0995 48.3 60.8995 44.7C60.6995 41.1 63.7995 41.8 67.6995 46.2C71.5995 50.6 74.8996 57.1 75.0996 60.7C75.2996 64.3 72.2996 63.6 68.2996 59.2Z" fill="#0B0B0B"/>
<path d="M68.2996 59.1C64.3996 54.7 61.0995 48.3 60.8995 44.7C60.6995 41.1 63.7995 41.8 67.6995 46.2C71.5995 50.6 74.8996 57 75.0996 60.6C75.2996 64.2 72.2996 63.5 68.2996 59.1Z" fill="#0B0B0B"/>
<path d="M68.2996 59.1C64.3996 54.7 61.0996 48.3 60.9996 44.8C60.7996 41.3 63.8996 41.9 67.7996 46.3C71.6996 50.7 74.9996 57.1 75.0996 60.6C75.2996 64.2 72.1996 63.5 68.2996 59.1Z" fill="#0C0C0C"/>
<path d="M68.2995 59.1C64.3995 54.7 61.0995 48.4 60.9995 44.8C60.8995 41.3 63.8995 41.9 67.7995 46.3C71.6995 50.7 74.9995 57 75.0995 60.6C75.1995 64.1 72.1995 63.4 68.2995 59.1Z" fill="#0D0D0D"/>
<path d="M68.2995 59C64.3995 54.7 61.1995 48.3 60.9995 44.8C60.8995 41.3 63.8995 42 67.6995 46.3C71.5995 50.6 74.7995 57 74.9995 60.5C75.1995 64.1 72.1995 63.4 68.2995 59Z" fill="#0D0D0D"/>
<path d="M68.2996 59C64.4996 54.7 61.1996 48.3 61.0996 44.8C60.9996 41.3 63.9996 42 67.7996 46.3C71.5996 50.6 74.8996 57 74.9996 60.5C75.1996 64 72.1996 63.3 68.2996 59Z" fill="#0E0E0E"/>
<path d="M68.2997 59C64.4997 54.7 61.1997 48.4 61.0997 44.9C60.9997 41.4 63.8997 42.1 67.7997 46.4C71.5997 50.7 74.8997 57 74.9997 60.5C75.1997 64 72.1997 63.3 68.2997 59Z" fill="#0F0F0F"/>
<path d="M68.2997 59C64.4997 54.7 61.2997 48.4 61.0997 45C60.9997 41.5 63.8997 42.2 67.6997 46.5C71.4997 50.8 74.6997 57.1 74.8997 60.5C75.0997 63.9 72.0997 63.2 68.2997 59Z" fill="#0F0F0F"/>
<path d="M68.2995 58.9C64.4995 54.6 61.2995 48.4 61.1995 44.9C61.0995 41.4 63.9995 42.1 67.7995 46.4C71.5995 50.7 74.7995 56.9 74.8995 60.4C75.0995 63.9 72.0995 63.2 68.2995 58.9Z" fill="#101010"/>
<path d="M68.2995 58.9C64.4995 54.7 61.2995 48.4 61.1995 45C61.0995 41.6 63.9995 42.2 67.7995 46.5C71.5995 50.7 74.7995 57 74.8995 60.4C75.0995 63.8 72.0995 63.2 68.2995 58.9Z" fill="#111111"/>
<path d="M68.2995 58.9C64.4995 54.7 61.3995 48.5 61.1995 45.1C61.0995 41.7 63.9995 42.3 67.7995 46.6C71.5995 50.8 74.6995 57 74.8995 60.4C74.9995 63.8 72.0995 63.1 68.2995 58.9Z" fill="#111111"/>
<path d="M68.2996 58.9C64.5996 54.7 61.3996 48.5 61.2996 45.1C61.1996 41.7 64.0996 42.3 67.7996 46.5C71.4996 50.7 74.6996 56.9 74.7996 60.3C74.9996 63.7 72.0996 63.1 68.2996 58.9Z" fill="#121212"/>
<path d="M68.2996 58.8C64.5996 54.6 61.3996 48.5 61.2996 45.1C61.1996 41.7 64.0996 42.4 67.7996 46.5C71.4996 50.7 74.6996 56.8 74.7996 60.2C74.9996 63.7 72.0996 63 68.2996 58.8Z" fill="#131313"/>
<path d="M68.2996 58.8C64.5996 54.6 61.4996 48.5 61.2996 45.1C61.1996 41.7 64.0996 42.4 67.7996 46.5C71.4996 50.7 74.5996 56.8 74.7996 60.2C74.8996 63.6 71.9996 63 68.2996 58.8Z" fill="#141414"/>
<path d="M68.2997 58.8C64.5997 54.7 61.4997 48.6 61.2997 45.2C61.1997 41.8 63.9997 42.5 67.6997 46.6C71.3997 50.7 74.4997 56.8 74.6997 60.2C74.8997 63.6 71.9997 62.9 68.2997 58.8Z" fill="#141414"/>
<path d="M68.2996 58.7C64.5996 54.6 61.4996 48.5 61.3996 45.2C61.2996 41.9 64.0996 42.5 67.7996 46.6C71.4996 50.7 74.5996 56.8 74.6996 60.1C74.8996 63.5 71.9996 62.9 68.2996 58.7Z" fill="#151515"/>
<path d="M68.2996 58.7C64.5996 54.6 61.5996 48.6 61.3996 45.2C61.2996 41.9 64.0996 42.5 67.7996 46.6C71.4996 50.7 74.4996 56.7 74.6996 60.1C74.7996 63.5 71.9996 62.8 68.2996 58.7Z" fill="#161616"/>
<path d="M68.2996 58.7C64.6996 54.6 61.5996 48.6 61.3996 45.3C61.2996 42 64.0996 42.6 67.6996 46.7C71.2996 50.8 74.3996 56.8 74.5996 60.1C74.7996 63.4 71.9996 62.8 68.2996 58.7Z" fill="#171717"/>
<path d="M68.2997 58.7C64.6997 54.6 61.5997 48.7 61.4997 45.4C61.3997 42.1 64.1997 42.7 67.7997 46.8C71.3997 50.9 74.4997 56.8 74.5997 60.1C74.7997 63.4 71.8997 62.7 68.2997 58.7Z" fill="#171717"/>
<path d="M68.2997 58.6C64.6997 54.5 61.5997 48.6 61.4997 45.3C61.3997 42 64.1997 42.6 67.7997 46.7C71.3997 50.8 74.4997 56.7 74.5997 60C74.6997 63.3 71.8997 62.7 68.2997 58.6Z" fill="#181818"/>
<path d="M68.2997 58.6C64.6997 54.6 61.6997 48.6 61.4997 45.4C61.3997 42.1 64.1997 42.8 67.7997 46.8C71.3997 50.8 74.3997 56.8 74.5997 60C74.6997 63.3 71.8997 62.6 68.2997 58.6Z" fill="#191919"/>
<path d="M68.2995 58.6C64.6995 54.6 61.6995 48.7 61.5995 45.4C61.4995 42.1 64.2995 42.8 67.7995 46.8C71.3995 50.8 74.3995 56.7 74.4995 60C74.6995 63.2 71.8995 62.6 68.2995 58.6Z" fill="#1A1A1A"/>
<path d="M68.2996 58.6C64.6996 54.6 61.6996 48.7 61.5996 45.5C61.4996 42.3 64.1996 42.9 67.7996 46.9C71.3996 50.9 74.3996 56.8 74.4996 60C74.6996 63.2 71.8996 62.5 68.2996 58.6Z" fill="#1A1A1A"/>
<path d="M68.2996 58.5C64.7996 54.5 61.7996 48.7 61.5996 45.5C61.4996 42.3 64.1996 42.9 67.7996 46.9C71.2996 50.9 74.2996 56.7 74.4996 59.9C74.5996 63.1 71.8996 62.5 68.2996 58.5Z" fill="#1B1B1B"/>
<path d="M68.2997 58.5C64.7997 54.5 61.7997 48.7 61.6997 45.5C61.5997 42.3 64.2997 42.9 67.7997 46.9C71.2997 50.9 74.2997 56.7 74.3997 59.9C74.5997 63.1 71.7997 62.5 68.2997 58.5Z" fill="#1C1C1C"/>
<path d="M68.2997 58.5C64.7997 54.6 61.7997 48.8 61.6997 45.6C61.5997 42.4 64.2997 43 67.7997 47C71.2997 50.9 74.2997 56.7 74.3997 59.9C74.5997 63 71.7997 62.4 68.2997 58.5Z" fill="#1D1D1D"/>
<path d="M68.2997 58.4001C64.7997 54.5 61.8997 48.7 61.6997 45.5C61.5997 42.3 64.2997 42.9 67.7997 46.8C71.2997 50.7 74.1997 56.5 74.3997 59.7C74.4997 63 71.7997 62.4001 68.2997 58.4001Z" fill="#1E1E1E"/>
<path d="M68.2996 58.4C64.7996 54.5 61.8996 48.8 61.7996 45.6C61.6996 42.4 64.3996 43 67.8996 46.9C71.3996 50.8 74.2996 56.5 74.3996 59.7C74.4996 62.9 71.7996 62.3 68.2996 58.4Z" fill="#1E1E1E"/>
<path d="M68.2996 58.4C64.7996 54.5 61.8996 48.8 61.7996 45.7C61.6996 42.6 64.3996 43.2 67.7996 47C71.2996 50.9 74.1996 56.6 74.2996 59.7C74.4996 62.9 71.7996 62.3 68.2996 58.4Z" fill="#1F1F1F"/>
<path d="M68.2996 58.4C64.8996 54.5 61.9996 48.9 61.7996 45.7C61.6996 42.6 64.3996 43.2 67.7996 47C71.1996 50.9 74.0996 56.5 74.2996 59.7C74.3996 62.8 71.7996 62.2 68.2996 58.4Z" fill="#202020"/>
<path d="M68.2995 58.3C64.8995 54.5 61.9995 48.8 61.8995 45.7C61.7995 42.6 64.3995 43.2 67.8995 47C71.2995 50.8 74.1995 56.5 74.2995 59.6C74.3995 62.8 71.6995 62.2 68.2995 58.3Z" fill="#212121"/>
<path d="M68.2995 58.3C64.8995 54.5 61.9995 48.9 61.8995 45.8C61.7995 42.7 64.3995 43.3 67.7995 47.1C71.1995 50.9 74.0995 56.5 74.1995 59.6C74.3995 62.7 71.6995 62.1 68.2995 58.3Z" fill="#222222"/>
<path d="M68.2995 58.3C64.8995 54.5 61.9995 48.9 61.8995 45.8C61.7995 42.7 64.3995 43.3 67.7995 47.1C71.1995 50.9 74.0995 56.5 74.1995 59.6C74.2995 62.7 71.6995 62.1 68.2995 58.3Z" fill="#222222"/>
<path d="M68.2996 58.2C64.8996 54.4 62.0996 48.9 61.9996 45.8C61.8996 42.7 64.4996 43.3 67.8996 47.1C71.2996 50.9 74.0996 56.4 74.1996 59.5C74.2996 62.6 71.6996 62 68.2996 58.2Z" fill="#232323"/>
<path d="M68.2996 58.2C64.8996 54.4 62.0996 48.9 61.9996 45.8C61.8996 42.7 64.4996 43.3 67.7996 47.1C71.1996 50.9 73.9996 56.4 74.0996 59.5C74.2996 62.6 71.6996 62 68.2996 58.2Z" fill="#242424"/>
<path d="M68.2996 58.2C64.9996 54.5 62.0996 48.9 61.9996 45.9C61.8996 42.9 64.4996 43.4 67.7996 47.2C71.0996 50.9 73.9996 56.5 74.0996 59.5C74.1996 62.5 71.5996 61.9 68.2996 58.2Z" fill="#252525"/>
<path d="M68.2996 58.2C64.9996 54.5 62.1996 49 61.9996 46C61.8996 43 64.4996 43.5 67.7996 47.3C71.0996 51 73.8996 56.5 74.0996 59.5C74.1996 62.5 71.5996 61.9 68.2996 58.2Z" fill="#262626"/>
<path d="M68.2997 58.1C64.9997 54.4 62.1997 48.9 62.0997 45.9C61.9997 42.9 64.5997 43.5 67.8997 47.2C71.1997 50.9 73.9997 56.4 74.0997 59.4C74.1997 62.4 71.5997 61.8 68.2997 58.1Z" fill="#272727"/>
<path d="M68.2996 58.1C64.9996 54.4 62.1996 49 62.0996 46C61.9996 43 64.4996 43.6 67.7996 47.3C71.0996 51 73.8996 56.4 73.9996 59.4C74.1996 62.4 71.5996 61.8 68.2996 58.1Z" fill="#272727"/>
<path d="M68.2996 58.1C64.9996 54.4 62.2996 49 62.0996 46.1C61.9996 43.1 64.4996 43.7 67.7996 47.4C71.0996 51.1 73.7996 56.5 73.9996 59.4C74.0996 62.3 71.5996 61.8 68.2996 58.1Z" fill="#282828"/>
<path d="M68.2997 58.1C64.9997 54.4 62.2997 49.1 62.1997 46.1C62.0997 43.1 64.5997 43.7 67.8997 47.4C71.1997 51.1 73.8997 56.4 73.9997 59.4C74.0997 62.3 71.5997 61.7 68.2997 58.1Z" fill="#292929"/>
<path d="M68.2997 58C65.0997 54.4 62.2997 49 62.1997 46.1C62.0997 43.2 64.5997 43.7 67.7997 47.3C70.9997 50.9 73.7997 56.3 73.8997 59.2C74.0997 62.2 71.4997 61.7 68.2997 58Z" fill="#2A2A2A"/>
<path d="M68.2997 58C65.0997 54.4 62.3997 49.1 62.1997 46.1C62.0997 43.2 64.5997 43.7 67.7997 47.3C70.9997 50.9 73.6997 56.2 73.8997 59.2C73.9997 62.2 71.4997 61.6 68.2997 58Z" fill="#2B2B2B"/>
<path d="M68.2995 58C65.0995 54.4 62.3995 49.1 62.2995 46.2C62.1995 43.3 64.6995 43.8 67.8995 47.4C71.0995 51 73.7995 56.3 73.8995 59.2C73.9995 62.1 71.4995 61.6 68.2995 58Z" fill="#2C2C2C"/>
<path d="M68.2995 57.9C65.0995 54.3 62.3995 49.1 62.2995 46.2C62.1995 43.3 64.6995 43.9 67.8995 47.4C71.0995 51 73.7995 56.2 73.8995 59.1C73.9995 62.1 71.4995 61.5 68.2995 57.9Z" fill="#2D2D2D"/>
<path d="M68.2995 57.9C65.0995 54.3 62.4995 49.1 62.2995 46.2C62.1995 43.3 64.6995 43.9 67.7995 47.4C70.9995 51 73.5995 56.2 73.7995 59.1C73.8995 62 71.4995 61.5 68.2995 57.9Z" fill="#2D2D2D"/>
<path d="M68.2995 57.9C65.0995 54.4 62.4995 49.2 62.3995 46.3C62.2995 43.4 64.6995 44 67.8995 47.5C71.0995 51 73.6995 56.2 73.7995 59.1C73.8995 62 71.3995 61.4 68.2995 57.9Z" fill="#2E2E2E"/>
<path d="M68.2995 57.9C65.1995 54.4 62.4995 49.2 62.3995 46.4C62.2995 43.5 64.6995 44.1 67.8995 47.6C70.9995 51.1 73.6995 56.3 73.7995 59.1C73.8995 61.9 71.3995 61.4 68.2995 57.9Z" fill="#2F2F2F"/>
<path d="M68.2995 57.8C65.1995 54.3 62.4995 49.2 62.3995 46.3C62.2995 43.5 64.6995 44 67.7995 47.5C70.8995 51 73.5995 56.1 73.6995 59C73.7995 61.9 71.3995 61.3 68.2995 57.8Z" fill="#303030"/>
<path d="M68.2996 57.8C65.1996 54.3 62.5996 49.2 62.4996 46.4C62.3996 43.6 64.7996 44.1 67.8996 47.6C70.9996 51.1 73.5996 56.2 73.6996 59C73.7996 61.8 71.3996 61.3 68.2996 57.8Z" fill="#313131"/>
<path d="M68.2996 57.8C65.1996 54.3 62.5996 49.2 62.4996 46.4C62.3996 43.6 64.7996 44.1 67.8996 47.6C70.9996 51.1 73.5996 56.2 73.6996 59C73.7996 61.8 71.3996 61.2 68.2996 57.8Z" fill="#323232"/>
<path d="M68.2996 57.7C65.1996 54.3 62.5996 49.2 62.4996 46.4C62.3996 43.6 64.7996 44.1 67.7996 47.6C70.8996 51 73.4996 56.1 73.5996 58.9C73.6996 61.7 71.3996 61.2 68.2996 57.7Z" fill="#333333"/>
<path d="M68.2997 57.7C65.1997 54.3 62.6997 49.2 62.5997 46.5C62.4997 43.7 64.8997 44.3 67.8997 47.7C70.9997 51.1 73.4997 56.2 73.5997 58.9C73.6997 61.7 71.2997 61.1 68.2997 57.7Z" fill="#343434"/>
<path d="M68.2997 57.7C65.2997 54.3 62.6997 49.3 62.5997 46.5C62.4997 43.7 64.8997 44.3 67.8997 47.7C70.8997 51.1 73.4997 56.1 73.5997 58.9C73.6997 61.6 71.2997 61.1 68.2997 57.7Z" fill="#353535"/>
<path d="M68.2996 57.7C65.2996 54.3 62.6996 49.3 62.5996 46.6C62.4996 43.9 64.7996 44.4 67.8996 47.8C70.8996 51.2 73.4996 56.2 73.5996 58.9C73.6996 61.6 71.2996 61.1 68.2996 57.7Z" fill="#363636"/>
<path d="M68.2996 57.6C65.2996 54.2 62.7996 49.3 62.5996 46.5C62.4996 43.8 64.7996 44.3 67.7996 47.7C70.7996 51.1 73.2996 56 73.4996 58.8C73.5996 61.5 71.2996 61 68.2996 57.6Z" fill="#363636"/>
<path d="M68.2997 57.6C65.2997 54.2 62.7997 49.3 62.6997 46.6C62.5997 43.9 64.8997 44.4 67.8997 47.7C70.8997 51.1 73.3997 56 73.4997 58.7C73.5997 61.5 71.2997 61 68.2997 57.6Z" fill="#373737"/>
<path d="M68.2997 57.6C65.2997 54.3 62.7997 49.4 62.6997 46.7C62.5997 44 64.8997 44.5 67.8997 47.8C70.8997 51.1 73.3997 56 73.4997 58.7C73.5997 61.4 71.1997 60.9 68.2997 57.6Z" fill="#383838"/>
<path d="M68.2997 57.5C65.2997 54.2 62.8997 49.3 62.6997 46.6C62.5997 43.9 64.8997 44.4 67.7997 47.7C70.7997 51 73.1997 55.9 73.3997 58.6C73.4997 61.4 71.1997 60.9 68.2997 57.5Z" fill="#393939"/>
<path d="M68.2995 57.5C65.3995 54.2 62.8995 49.4 62.7995 46.7C62.6995 44 64.9995 44.5 67.8995 47.8C70.7995 51.1 73.2995 55.9 73.3995 58.6C73.4995 61.3 71.1995 60.8 68.2995 57.5Z" fill="#3A3A3A"/>
<path d="M68.2995 57.5C65.3995 54.2 62.8995 49.4 62.7995 46.8C62.6995 44.1 64.9995 44.6 67.8995 47.9C70.7995 51.2 73.2995 56 73.3995 58.6C73.4995 61.3 71.1995 60.8 68.2995 57.5Z" fill="#3B3B3B"/>
<path d="M68.2995 57.5C65.3995 54.2 62.9995 49.5 62.7995 46.8C62.6995 44.2 64.9995 44.7 67.8995 47.9C70.7995 51.2 73.1995 55.9 73.3995 58.5999C73.3995 61.1999 71.1995 60.7 68.2995 57.5Z" fill="#3C3C3C"/>
<path d="M68.2995 57.4C65.3995 54.2 62.9995 49.4 62.8995 46.8C62.7995 44.2 64.9995 44.7 67.8995 47.9C70.7995 51.1 73.1995 55.9 73.2995 58.5C73.3995 61.2 71.1995 60.7 68.2995 57.4Z" fill="#3D3D3D"/>
<path d="M68.2995 57.4C65.3995 54.2 62.9995 49.5 62.8995 46.8C62.7995 44.2 64.9995 44.7 67.8995 47.9C70.7995 51.1 73.1995 55.8 73.2995 58.5C73.3995 61.1 71.0995 60.6 68.2995 57.4Z" fill="#3E3E3E"/>
<path d="M68.2995 57.4C65.3995 54.2 62.9995 49.5 62.8995 46.9C62.7995 44.3 64.9995 44.8 67.8995 48C70.7995 51.2 73.1995 55.9 73.2995 58.5C73.2995 61.1 71.0995 60.6 68.2995 57.4Z" fill="#3F3F3F"/>
<path d="M68.2996 57.4C65.4996 54.2 63.0996 49.5 62.9996 47C62.8996 44.4 65.0996 44.9 67.8996 48.1C70.6996 51.3 73.0996 56 73.1996 58.5C73.2996 61 71.0996 60.5 68.2996 57.4Z" fill="#404040"/>
<path d="M68.2996 57.3C65.4996 54.1 63.0996 49.5 62.9996 46.9C62.8996 44.3 65.0996 44.8 67.8996 48C70.6996 51.2 73.0996 55.8 73.1996 58.4C73.2996 61 71.0996 60.5 68.2996 57.3Z" fill="#414141"/>
<path d="M68.2996 57.3C65.4996 54.2 63.0996 49.5 62.9996 47C62.8996 44.5 65.0996 44.9 67.8996 48.1C70.6996 51.2 73.0996 55.9 73.1996 58.4C73.1996 60.9 71.0996 60.4 68.2996 57.3Z" fill="#424242"/>
<path d="M68.2997 57.3C65.4997 54.2 63.1997 49.6 63.0997 47.1C62.9997 44.6 65.1997 45 67.8997 48.2C70.6997 51.3 72.9997 55.9 73.0997 58.4C73.1997 60.9 70.9997 60.4 68.2997 57.3Z" fill="#434343"/>
<path d="M68.2997 57.2C65.4997 54.1 63.1997 49.5 63.0997 47C62.9997 44.5 65.1997 45 67.8997 48.1C70.6997 51.2 72.9997 55.8 73.0997 58.3C73.1997 60.8 70.9997 60.3 68.2997 57.2Z" fill="#444444"/>
<path d="M68.2996 57.2C65.4996 54.1 63.1996 49.6 63.0996 47.1C62.9996 44.6 65.0996 45.1 67.8996 48.2C70.6996 51.3 72.9996 55.8 73.0996 58.3C73.1996 60.8 70.9996 60.3 68.2996 57.2Z" fill="#454545"/>
<path d="M68.2997 57.2C65.5997 54.1 63.2997 49.6 63.1997 47.1C63.0997 44.6 65.1997 45.1 67.9997 48.2C70.6997 51.3 72.9997 55.8 73.0997 58.3C73.0997 60.7 70.9997 60.3 68.2997 57.2Z" fill="#454545"/>
<path d="M68.2997 57.2C65.5997 54.2 63.2997 49.7 63.1997 47.2C63.0997 44.7 65.1997 45.2 67.8997 48.2C70.5997 51.2 72.8997 55.7 72.9997 58.2C73.0997 60.7 70.9997 60.2 68.2997 57.2Z" fill="#464646"/>
<path d="M68.2997 57.1C65.5997 54.1 63.2997 49.6 63.1997 47.2C63.0997 44.7 65.1997 45.2 67.8997 48.2C70.5997 51.2 72.8997 55.7 72.9997 58.1C73.0997 60.6 70.9997 60.2 68.2997 57.1Z" fill="#474747"/>
<path d="M68.2996 57.1C65.5996 54.1 63.3996 49.7 63.2996 47.2C63.1996 44.8 65.2996 45.2 67.9996 48.2C70.6996 51.2 72.8996 55.6 72.9996 58.1C72.9996 60.6 70.8996 60.1 68.2996 57.1Z" fill="#484848"/>
<path d="M68.2996 57.1C65.5996 54.1 63.3996 49.7 63.2996 47.3C63.1996 44.9 65.2996 45.3 67.8996 48.3C70.5996 51.3 72.7996 55.7 72.8996 58.1C72.9996 60.5 70.8996 60.1 68.2996 57.1Z" fill="#494949"/>
<path d="M68.2996 57C65.5996 54 63.3996 49.7 63.2996 47.3C63.1996 44.9 65.2996 45.3 67.8996 48.3C70.5996 51.3 72.7996 55.6 72.8996 58C72.9996 60.5 70.8996 60 68.2996 57Z" fill="#4A4A4A"/>
<path d="M68.1997 57C65.5997 54 63.3997 49.7 63.1997 47.3C63.0997 44.9 65.1997 45.4 67.7997 48.3C70.3997 51.3 72.6997 55.6 72.7997 58C72.8997 60.4 70.8997 60 68.1997 57Z" fill="#4B4B4B"/>
<path d="M68.1995 57C65.5995 54.1 63.3995 49.8 63.2995 47.4C63.1995 45 65.1995 45.5 67.8995 48.4C70.4995 51.3 72.6995 55.6 72.7995 58C72.8995 60.4 70.8995 59.9 68.1995 57Z" fill="#4C4C4C"/>
<path d="M68.1995 57C65.5995 54.1 63.3995 49.8 63.2995 47.4C63.1995 45 65.1995 45.5 67.7995 48.4C70.3995 51.3 72.5995 55.6 72.6995 58C72.8995 60.3 70.7995 59.9 68.1995 57Z" fill="#4D4D4D"/>
<path d="M68.1995 56.9C65.5995 54 63.3995 49.8 63.2995 47.4C63.1995 45.1 65.1995 45.5 67.7995 48.4C70.3995 51.3 72.5995 55.6 72.6995 57.9C72.7995 60.3 70.7995 59.8 68.1995 56.9Z" fill="#4E4E4E"/>
<path d="M68.1996 56.9C65.5996 54 63.4996 49.8 63.3996 47.5C63.2996 45.2 65.2996 45.6 67.8996 48.5C70.4996 51.4 72.5996 55.6 72.6996 57.9C72.7996 60.2 70.7996 59.8 68.1996 56.9Z" fill="#4F4F4F"/>
<path d="M68.1996 56.9C65.6996 54 63.4996 49.8 63.3996 47.5C63.2996 45.2 65.2996 45.6 67.7996 48.5C70.2996 51.4 72.4996 55.6 72.5996 57.9C72.7996 60.2 70.7996 59.7 68.1996 56.9Z" fill="#505050"/>
<path d="M68.1996 56.9C65.6996 54.1 63.4996 49.9 63.3996 47.6C63.2996 45.3 65.2996 45.7 67.7996 48.6C70.2996 51.4 72.4996 55.6 72.5996 57.9C72.6996 60.1 70.7996 59.7 68.1996 56.9Z" fill="#515151"/>
<path d="M68.1997 56.8C65.6997 54 63.5997 49.8 63.4997 47.6C63.3997 45.3 65.3997 45.7 67.8997 48.6C70.3997 51.4 72.4997 55.6 72.5997 57.9C72.6997 60.1 70.7997 59.6 68.1997 56.8Z" fill="#525252"/>
<path d="M68.1997 56.8C65.6997 54 63.5997 49.9 63.4997 47.6C63.3997 45.3 65.3997 45.8 67.7997 48.6C70.2997 51.4 72.3997 55.5 72.4997 57.8C72.6997 60 70.6997 59.6 68.1997 56.8Z" fill="#535353"/>
<path d="M68.1996 56.8C65.6996 54 63.5996 49.9 63.4996 47.7C63.3996 45.4 65.2996 45.9 67.7996 48.7C70.2996 51.5 72.3996 55.6 72.4996 57.8C72.6996 60 70.6996 59.6 68.1996 56.8Z" fill="#545454"/>
<path d="M68.1997 56.7C65.6997 53.9 63.6997 49.9 63.5997 47.6C63.4997 45.4 65.3997 45.8 67.8997 48.5C70.3997 51.3 72.3997 55.3 72.4997 57.6C72.5997 59.9 70.6997 59.5 68.1997 56.7Z" fill="#555555"/>
<path d="M68.1997 56.7C65.7997 54 63.6997 49.9 63.5997 47.7C63.4997 45.5 65.3997 45.9 67.8997 48.6C70.2997 51.3 72.3997 55.4 72.4997 57.6C72.5997 59.9 70.6997 59.5 68.1997 56.7Z" fill="#565656"/>
<path d="M68.1997 56.7C65.7997 54 63.6997 50 63.5997 47.8C63.4997 45.6 65.3997 46 67.7997 48.7C70.1997 51.4 72.2997 55.4 72.3997 57.6C72.5997 59.8 70.6997 59.4 68.1997 56.7Z" fill="#575757"/>
<path d="M68.1996 56.7C65.7996 54 63.7996 50 63.6996 47.8C63.5996 45.6 65.4996 46 67.8996 48.7C70.2996 51.4 72.2996 55.4 72.3996 57.6C72.4996 59.8 70.5996 59.4 68.1996 56.7Z" fill="#585858"/>
<path d="M68.1996 56.6C65.7996 53.9 63.7996 50 63.6996 47.8C63.5996 45.6 65.4996 46 67.8996 48.7C70.2996 51.4 72.2996 55.3 72.3996 57.5C72.4996 59.7 70.5996 59.3 68.1996 56.6Z" fill="#595959"/>
<path d="M68.1996 56.6C65.7996 53.9 63.7996 50 63.6996 47.8C63.5996 45.6 65.4996 46 67.7996 48.7C70.1996 51.4 72.1996 55.3 72.2996 57.5C72.4996 59.7 70.5996 59.3 68.1996 56.6Z" fill="#5A5A5A"/>
<path d="M68.1997 56.6C65.7997 53.9 63.7997 50.1 63.7997 47.9C63.6997 45.8 65.5997 46.2 67.8997 48.8C70.2997 51.5 72.2997 55.3 72.2997 57.5C72.3997 59.6 70.5997 59.2 68.1997 56.6Z" fill="#5B5B5B"/>
<path d="M68.1996 56.5C65.8996 53.9 63.8996 50 63.7996 47.9C63.6996 45.8 65.4996 46.2 67.8996 48.8C70.1996 51.4 72.1996 55.3 72.2996 57.4C72.3996 59.6 70.5996 59.2 68.1996 56.5Z" fill="#5C5C5C"/>
<path d="M68.1996 56.5C65.8996 53.9 63.8996 50.1 63.7996 47.9C63.6996 45.8 65.4996 46.2 67.8996 48.8C70.1996 51.4 72.1996 55.3 72.2996 57.4C72.3996 59.5 70.5996 59.1 68.1996 56.5Z" fill="#5E5E5E"/>
<path d="M68.1995 56.5C65.8995 53.9 63.8995 50.1 63.8995 48C63.7995 45.9 65.5995 46.3 67.8995 48.9C70.1995 51.5 72.1995 55.3 72.1995 57.4C72.2995 59.5 70.4995 59.1 68.1995 56.5Z" fill="#5F5F5F"/>
<path d="M68.1995 56.5C65.8995 53.9 63.9995 50.0999 63.8995 48.0999C63.7995 45.9999 65.5995 46.4 67.8995 49C70.1995 51.6 72.0995 55.4 72.1995 57.4C72.2995 59.4 70.4995 59 68.1995 56.5Z" fill="#606060"/>
<path d="M68.1995 56.4C65.8995 53.8 63.9995 50.1 63.8995 48C63.7995 45.9 65.5995 46.3 67.8995 48.9C70.1995 51.5 72.0995 55.2 72.1995 57.3C72.2995 59.4 70.4995 59 68.1995 56.4Z" fill="#616161"/>
<path d="M68.1995 56.4C65.8995 53.9 63.9995 50.0999 63.8995 48.0999C63.7995 45.9999 65.5995 46.4 67.7995 49C70.0995 51.5 71.9995 55.3 72.0995 57.3C72.1995 59.3 70.4995 58.9 68.1995 56.4Z" fill="#626262"/>
<path d="M68.1996 56.4C65.9996 53.9 64.0996 50.2 63.9996 48.1C63.8996 46.1 65.6996 46.4 67.8996 49C70.0996 51.5 71.9996 55.2 72.0996 57.3C72.1996 59.3 70.4996 58.9 68.1996 56.4Z" fill="#636363"/>
<path d="M68.1996 56.4001C65.9996 53.9001 64.0996 50.2 63.9996 48.2C63.8996 46.2 65.6996 46.6 67.8996 49.1C70.0996 51.6 71.9996 55.3 72.0996 57.3C72.1996 59.2 70.3996 58.9001 68.1996 56.4001Z" fill="#646464"/>
<path d="M68.1996 56.3C65.9996 53.8 64.0996 50.2 63.9996 48.2C63.8996 46.2 65.5996 46.6 67.7996 49.1C69.9996 51.6 71.8996 55.2 71.9996 57.2C72.1996 59.2 70.3996 58.8 68.1996 56.3Z" fill="#656565"/>
<path d="M68.1996 56.3C65.9996 53.8 64.1997 50.2 64.0997 48.2C63.9997 46.2 65.6996 46.6 67.8996 49C70.0996 51.5 71.8996 55.1 71.9996 57.1C72.0996 59.1 70.3996 58.8 68.1996 56.3Z" fill="#666666"/>
<path d="M68.1996 56.3C65.9996 53.9 64.1997 50.3 64.0997 48.3C63.9997 46.3 65.6996 46.7 67.8996 49.1C70.0996 51.5 71.8996 55.1 71.9996 57.1C72.0996 59.1 70.3996 58.7 68.1996 56.3Z" fill="#676767"/>
<path d="M68.1996 56.2C65.9996 53.8 64.1997 50.2 64.0997 48.3C63.9997 46.3 65.6996 46.7 67.8996 49.1C70.0996 51.5 71.8996 55.1 71.9996 57C72.0996 59 70.3996 58.7 68.1996 56.2Z" fill="#686868"/>
<path d="M68.1995 56.2C66.0995 53.8 64.2995 50.3 64.1995 48.3C64.0995 46.4 65.7995 46.7 67.8995 49.1C69.9995 51.5 71.7995 55 71.8995 57C71.9995 59 70.3995 58.6 68.1995 56.2Z" fill="#696969"/>
<path d="M68.1995 56.2C66.0995 53.8 64.2995 50.3001 64.1995 48.4001C64.0995 46.5001 65.7995 46.8 67.8995 49.2C69.9995 51.6 71.7995 55.1 71.8995 57C71.9995 58.9 70.2995 58.6 68.1995 56.2Z" fill="#6A6A6A"/>
<path d="M68.1995 56.2C66.0995 53.8 64.2995 50.4001 64.1995 48.4001C64.0995 46.5001 65.7995 46.8 67.8995 49.2C69.9995 51.6 71.7995 55 71.8995 57C71.9995 58.9 70.2995 58.5 68.1995 56.2Z" fill="#6B6B6B"/>
<path d="M68.1996 56.0999C66.0996 53.7999 64.2996 50.3 64.2996 48.4C64.1996 46.5 65.8996 46.9 67.8996 49.2C69.9996 51.5 71.7996 55 71.7996 56.9C71.8996 58.8 70.2996 58.4999 68.1996 56.0999Z" fill="#6C6C6C"/>
<path d="M68.1996 56.0999C66.0996 53.7999 64.3996 50.4 64.2996 48.5C64.1996 46.6 65.7996 47 67.8996 49.3C69.9996 51.6 71.6996 55 71.7996 56.9C71.8996 58.8 70.2996 58.3999 68.1996 56.0999Z" fill="#6D6D6D"/>
<path d="M68.1996 56.0999C66.0996 53.7999 64.3996 50.4 64.2996 48.5C64.1996 46.6 65.7996 47 67.8996 49.3C69.9996 51.6 71.6996 55 71.7996 56.9C71.8996 58.7 70.2996 58.3999 68.1996 56.0999Z" fill="#6E6E6E"/>
<path d="M68.1997 56C66.1997 53.7 64.3997 50.3 64.3997 48.5C64.2997 46.6 65.8997 47 67.9997 49.3C69.9997 51.6 71.7997 55 71.7997 56.8C71.7997 58.7 70.2997 58.3 68.1997 56Z" fill="#6F6F6F"/>
<path d="M68.1997 56C66.1997 53.7 64.4997 50.4 64.3997 48.5C64.2997 46.7 65.8997 47 67.8997 49.3C69.8997 51.6 71.5997 54.9 71.6997 56.8C71.7997 58.6 70.1997 58.3 68.1997 56Z" fill="#717171"/>
<path d="M68.1997 56C66.1997 53.7 64.4997 50.4 64.3997 48.6C64.2997 46.8 65.8997 47.1 67.8997 49.4C69.8997 51.7 71.5997 55 71.6997 56.8C71.7997 58.6 70.1997 58.2 68.1997 56Z" fill="#727272"/>
<path d="M68.1996 56C66.1996 53.8 64.4996 50.5 64.4996 48.7C64.3996 46.9 65.9996 47.2 67.9996 49.5C69.9996 51.7 71.6996 55 71.6996 56.8C71.6996 58.5 70.1996 58.2 68.1996 56Z" fill="#737373"/>
<path d="M68.1996 55.9C66.1996 53.7 64.5996 50.4 64.4996 48.6C64.3996 46.8 65.9996 47.1 67.8996 49.4C69.8996 51.6 71.4996 54.9 71.5996 56.7C71.6996 58.5 70.1996 58.2 68.1996 55.9Z" fill="#747474"/>
<path d="M68.1996 55.9C66.1996 53.7 64.5996 50.5 64.4996 48.7C64.3996 46.9 65.9996 47.3 67.8996 49.5C69.8996 51.7 71.4996 54.9 71.5996 56.7C71.6996 58.4 70.1996 58.1 68.1996 55.9Z" fill="#757575"/>
<path d="M68.1996 55.9C66.2996 53.7 64.5996 50.5 64.4996 48.8C64.3996 47 65.8996 47.4 67.8996 49.5C69.7996 51.7 71.4996 54.9 71.5996 56.6C71.6996 58.4 70.0996 58.1 68.1996 55.9Z" fill="#767676"/>
<path d="M68.1997 55.9C66.2997 53.7 64.6997 50.6 64.5997 48.8C64.4997 47.1 65.9997 47.4 67.9997 49.5C69.8997 51.7 71.4997 54.8 71.5997 56.6C71.5997 58.3 70.0997 58 68.1997 55.9Z" fill="#777777"/>
<path d="M68.1997 55.8C66.2997 53.7 64.6997 50.5 64.5997 48.8C64.4997 47.1 65.9997 47.4 67.8997 49.5C69.7997 51.6 71.3997 54.8 71.4997 56.5C71.5997 58.3 70.0997 58 68.1997 55.8Z" fill="#787878"/>
<path d="M68.1997 55.8C66.2997 53.7 64.6997 50.6 64.5997 48.8C64.4997 47.1 65.9997 47.4 67.8997 49.5C69.7997 51.6 71.3997 54.7 71.4997 56.5C71.5997 58.2 70.0997 57.9 68.1997 55.8Z" fill="#797979"/>
<path d="M68.1995 55.8C66.2995 53.7 64.6995 50.6 64.6995 48.9C64.5995 47.2 66.0996 47.5 67.9996 49.6C69.8996 51.7 71.4996 54.8 71.4996 56.5C71.4996 58.2 70.0995 57.9 68.1995 55.8Z" fill="#7A7A7A"/>
<path d="M68.1996 55.7C66.2996 53.6 64.7996 50.6 64.6996 48.9C64.5996 47.2 66.0995 47.5 67.8995 49.6C69.7995 51.7 71.2995 54.7 71.3995 56.4C71.4995 58.1 70.0996 57.8 68.1996 55.7Z" fill="#7B7B7B"/>
<path d="M68.1996 55.7C66.3996 53.6 64.7996 50.6 64.6996 48.9C64.5996 47.2 66.0995 47.5 67.8995 49.6C69.6995 51.7 71.2995 54.7 71.3995 56.4C71.4995 58.1 69.9996 57.8 68.1996 55.7Z" fill="#7D7D7D"/>
<path d="M68.1997 55.7C66.3997 53.7 64.7997 50.7 64.7997 49C64.6997 47.3 66.0997 47.7 67.9997 49.7C69.7997 51.7 71.3997 54.7 71.3997 56.4C71.3997 58.1 69.9997 57.7 68.1997 55.7Z" fill="#7E7E7E"/>
<path d="M68.1997 55.7C66.3997 53.7 64.8997 50.7 64.7997 49.1C64.6997 47.5 66.0997 47.8 67.8997 49.8C69.6997 51.8 71.1997 54.8001 71.2997 56.4001C71.3997 58.0001 69.9997 57.7 68.1997 55.7Z" fill="#7F7F7F"/>
<path d="M68.1997 55.6C66.3997 53.6 64.8997 50.6 64.7997 49C64.6997 47.4 66.0997 47.7 67.8997 49.7C69.6997 51.7 71.1997 54.7 71.2997 56.3C71.3997 57.9 69.9997 57.6 68.1997 55.6Z" fill="#808080"/>
<path d="M68.1996 55.6C66.3996 53.6 64.8996 50.7 64.8996 49.1C64.7996 47.5 66.1996 47.8 67.9996 49.8C69.7996 51.8 71.2996 54.7 71.2996 56.3C71.2996 57.9 69.9996 57.6 68.1996 55.6Z" fill="#818181"/>
<path d="M68.1996 55.6C66.3996 53.6 64.9996 50.7 64.8996 49.1C64.7996 47.5 66.1996 47.8 67.9996 49.8C69.7996 51.8 71.1996 54.7 71.2996 56.3C71.2996 57.8 69.8996 57.5 68.1996 55.6Z" fill="#828282"/>
<path d="M68.1996 55.5C66.4996 53.5 64.9996 50.7 64.8996 49.1C64.7996 47.5 66.1996 47.8 67.8996 49.8C69.5996 51.8 71.0996 54.6 71.1996 56.2C71.2996 57.8 69.8996 57.5 68.1996 55.5Z" fill="#838383"/>
<path d="M68.1997 55.5C66.4997 53.6 64.9997 50.7 64.9997 49.2C64.8997 47.6 66.2997 47.9001 67.9997 49.9001C69.6997 51.8001 71.1997 54.7 71.1997 56.2C71.1997 57.7 69.8997 57.5 68.1997 55.5Z" fill="#848484"/>
<path d="M68.1997 55.5C66.4997 53.6 65.0997 50.8 64.9997 49.2C64.8997 47.7 66.2997 47.9001 67.9997 49.9001C69.6997 51.8001 71.0997 54.6 71.1997 56.2C71.1997 57.7 69.8997 57.4 68.1997 55.5Z" fill="#858585"/>
<path d="M68.1997 55.5C66.4997 53.6 65.0997 50.8 64.9997 49.3C64.8997 47.8 66.2997 48.1 67.8997 50C69.5997 51.9 70.9997 54.7 71.0997 56.2C71.1997 57.6 69.8997 57.4 68.1997 55.5Z" fill="#878787"/>
<path d="M68.1996 55.4C66.4996 53.5 65.0996 50.8 65.0996 49.3C65.0996 47.8 66.2996 48.1 67.9996 49.9C69.6996 51.8 71.0996 54.5 71.0996 56C71.1996 57.6 69.8996 57.3 68.1996 55.4Z" fill="#888888"/>
<path d="M68.1996 55.4C66.4996 53.5 65.1996 50.8 65.0996 49.3C64.9996 47.8 66.2996 48.1 67.9996 49.9C69.6996 51.8 70.9996 54.5 71.0996 56C71.0996 57.6 69.7996 57.3 68.1996 55.4Z" fill="#898989"/>
<path d="M68.1996 55.4C66.5996 53.6 65.1996 50.9 65.0996 49.4C64.9996 47.9 66.2996 48.2 67.8996 50C69.4996 51.8 70.8996 54.5 70.9996 56C71.0996 57.5 69.7996 57.2 68.1996 55.4Z" fill="#8A8A8A"/>
<path d="M68.1995 55.4C66.5995 53.6 65.1995 50.9 65.1995 49.4C65.0995 47.9 66.3995 48.2 67.9995 50C69.5995 51.8 70.9995 54.5 70.9995 56C71.0995 57.5 69.7995 57.2 68.1995 55.4Z" fill="#8B8B8B"/>
<path d="M68.1995 55.3C66.5995 53.5 65.1995 50.9 65.1995 49.4C65.0995 47.9 66.3995 48.2 67.9995 50C69.5995 51.8 70.9995 54.4 70.9995 55.9C70.9995 57.4 69.7995 57.1 68.1995 55.3Z" fill="#8C8C8C"/>
<path d="M68.1995 55.3C66.5995 53.5 65.2995 50.9 65.1995 49.5C65.0995 48.1 66.3995 48.3 67.9995 50.1C69.5995 51.9 70.8995 54.5 70.9995 55.9C70.9995 57.4 69.7995 57.1 68.1995 55.3Z" fill="#8D8D8D"/>
<path d="M68.1995 55.3C66.5995 53.5 65.2995 51 65.1995 49.5C65.0995 48.1 66.3995 48.3 67.8995 50.1C69.4995 51.9 70.7995 54.4 70.8995 55.9C70.9995 57.3 69.6995 57 68.1995 55.3Z" fill="#8E8E8E"/>
<path d="M68.1996 55.2C66.5996 53.5 65.2996 50.9 65.2996 49.5C65.2996 48.1 66.4996 48.4 67.9996 50.1C69.4996 51.8 70.8996 54.4 70.8996 55.8C70.8996 57.3 69.6996 57 68.1996 55.2Z" fill="#909090"/>
<path d="M68.1995 55.2C66.6995 53.5 65.3995 50.9 65.2995 49.6C65.1995 48.2 66.3995 48.5 67.9995 50.2C69.4995 51.9 70.7995 54.5001 70.8995 55.9001C70.8995 57.2001 69.6995 56.9 68.1995 55.2Z" fill="#919191"/>
<path d="M68.1995 55.2C66.6995 53.5 65.3995 51 65.2995 49.6C65.1995 48.2 66.3995 48.5 67.8995 50.2C69.3995 51.9 70.6995 54.4 70.7995 55.8C70.8995 57.2 69.6995 56.9 68.1995 55.2Z" fill="#929292"/>
<path d="M68.1996 55.2C66.6996 53.5 65.3996 51 65.3996 49.7C65.2996 48.3 66.4996 48.6 67.9996 50.3C69.4996 52 70.7996 54.5 70.7996 55.8C70.7996 57.1 69.6996 56.8 68.1996 55.2Z" fill="#939393"/>
<path d="M68.1996 55.1C66.6996 53.4 65.4996 51 65.3996 49.6C65.2996 48.3 66.4996 48.5 67.9996 50.2C69.4996 51.9 70.6996 54.3 70.7996 55.7C70.7996 57.1 69.6996 56.8 68.1996 55.1Z" fill="#949494"/>
<path d="M68.1996 55.1C66.6996 53.5 65.4996 51 65.3996 49.7C65.2996 48.4 66.4996 48.6 67.9996 50.3C69.4996 51.9 70.6996 54.4 70.7996 55.7C70.7996 57 69.5996 56.8 68.1996 55.1Z" fill="#959595"/>
<path d="M68.1995 55.1C66.6995 53.5 65.4995 51.1 65.4995 49.8C65.3995 48.5 66.5995 48.7 67.9995 50.4C69.4995 52 70.6995 54.4 70.6995 55.7C70.7995 57 69.5995 56.7 68.1995 55.1Z" fill="#979797"/>
<path d="M68.1995 55C66.7995 53.4 65.5995 51 65.4995 49.7C65.3995 48.4 66.5995 48.6 67.9995 50.3C69.3995 51.9 70.5995 54.3 70.6995 55.6C70.6995 56.9 69.5995 56.7 68.1995 55Z" fill="#989898"/>
<path d="M68.1995 55C66.7995 53.4 65.5995 51.1 65.4995 49.8C65.3995 48.5 66.5995 48.8 67.9995 50.3C69.3995 51.9 70.5995 54.2 70.6995 55.5C70.6995 56.9 69.5995 56.6 68.1995 55Z" fill="#999999"/>
<path d="M68.1996 55C66.7996 53.4 65.5996 51.1 65.5996 49.8C65.4996 48.5 66.5996 48.8 67.9996 50.3C69.3996 51.9 70.5996 54.2 70.5996 55.5C70.6996 56.8 69.5996 56.6 68.1996 55Z" fill="#9A9A9A"/>
<path d="M68.1996 55C66.7996 53.4 65.6996 51.2 65.5996 49.9C65.4996 48.6 66.5996 48.9 67.9996 50.4C69.3996 51.9 70.4996 54.2 70.5996 55.5C70.5996 56.8 69.4996 56.5 68.1996 55Z" fill="#9B9B9B"/>
<path d="M68.1996 54.9C66.7996 53.4 65.6996 51.1 65.5996 49.9C65.4996 48.7 66.5996 48.9 67.9996 50.4C69.3996 51.9 70.4996 54.2 70.5996 55.4C70.5996 56.7 69.4996 56.5 68.1996 54.9Z" fill="#9C9C9C"/>
<path d="M68.1997 54.9C66.8997 53.4 65.6997 51.2 65.6997 49.9C65.5997 48.7 66.6997 48.9 68.0997 50.4C69.4997 51.9 70.5997 54.1 70.5997 55.4C70.5997 56.7 69.4997 56.4 68.1997 54.9Z" fill="#9D9D9D"/>
<path d="M68.1997 54.9C66.8997 53.4 65.6997 51.2 65.6997 50C65.5997 48.8 66.6997 49 67.9997 50.5C69.2997 52 70.4997 54.2 70.4997 55.4C70.4997 56.6 69.4997 56.4 68.1997 54.9Z" fill="#9F9F9F"/>
<path d="M68.1997 54.9C66.8997 53.4 65.7997 51.3 65.6997 50.1C65.5997 48.9 66.6997 49.1 67.9997 50.6C69.2997 52.1 70.3997 54.2 70.4997 55.4C70.4997 56.6 69.4997 56.3 68.1997 54.9Z" fill="#A0A0A0"/>
<path d="M68.1995 54.8C66.8995 53.3 65.7995 51.2 65.7995 50C65.6995 48.8 66.7995 49 68.0995 50.5C69.3995 52 70.4995 54.1 70.4995 55.3C70.4995 56.5 69.4995 56.3 68.1995 54.8Z" fill="#A1A1A1"/>
<path d="M68.1996 54.8C66.8996 53.4 65.7996 51.1999 65.7996 50.0999C65.7996 48.8999 66.7996 49.1999 67.9996 50.5999C69.2996 51.9999 70.3996 54.2 70.3996 55.3C70.3996 56.5 69.3996 56.2 68.1996 54.8Z" fill="#A2A2A2"/>
<path d="M68.1996 54.8C66.8996 53.4 65.8996 51.2999 65.7996 50.0999C65.7996 48.8999 66.6996 49.1999 67.9996 50.5999C69.2996 51.9999 70.2996 54.1 70.3996 55.3C70.3996 56.4 69.3996 56.2 68.1996 54.8Z" fill="#A3A3A3"/>
<path d="M68.1997 54.7C66.9997 53.3 65.8997 51.2 65.8997 50.1C65.8997 49 66.7997 49.2 68.0997 50.6C69.2997 52 70.3997 54.1 70.4997 55.2C70.3997 56.4 69.3997 56.1 68.1997 54.7Z" fill="#A4A4A4"/>
<path d="M68.1997 54.7C66.9997 53.3 65.8997 51.3 65.8997 50.2C65.8997 49.1 66.7997 49.3 67.9997 50.7C69.1997 52.1 70.2997 54.1 70.2997 55.2C70.2997 56.3 69.3997 56.1 68.1997 54.7Z" fill="#A6A6A6"/>
<path d="M68.0996 54.7C66.8996 53.3 65.8996 51.3 65.7996 50.2C65.7996 49.1 66.6996 49.3 67.8996 50.7C69.0996 52.1 70.0996 54.1 70.1996 55.2C70.2996 56.3 69.3996 56.1 68.0996 54.7Z" fill="#A7A7A7"/>
<path d="M68.0996 54.7C66.8996 53.4 65.8996 51.4 65.7996 50.3C65.7996 49.2 66.6996 49.4 67.8996 50.8C69.0996 52.1 70.0996 54.1 70.1996 55.2C70.2996 56.2 69.2996 56 68.0996 54.7Z" fill="#A8A8A8"/>
<path d="M68.0997 54.6C66.8997 53.3 65.8997 51.3 65.8997 50.3C65.8997 49.2 66.7997 49.4 67.9997 50.8C69.1997 52.1 70.1997 54.1 70.1997 55.1C70.2997 56.2 69.2997 56 68.0997 54.6Z" fill="#A9A9A9"/>
<path d="M68.0997 54.6C66.8997 53.3 65.9997 51.4 65.8997 50.3C65.8997 49.2 66.7997 49.4 67.8997 50.7C69.0997 52 69.9997 53.9 70.0997 55C70.1997 56.1 69.2997 55.9 68.0997 54.6Z" fill="#AAAAAA"/>
<path d="M68.0997 54.5999C66.9997 53.2999 65.9997 51.4 65.8997 50.4C65.8997 49.4 66.7997 49.6 67.8997 50.8C68.9997 52.1 69.9997 54 70.0997 55C70.1997 56.1 69.2997 55.8999 68.0997 54.5999Z" fill="#ACACAC"/>
<path d="M68.0995 54.5C66.9995 53.2 65.9995 51.4 65.9995 50.3C65.9995 49.3 66.7995 49.5 67.9995 50.7C69.0995 52 70.0995 53.8 70.0995 54.9C70.1995 56 69.2995 55.8 68.0995 54.5Z" fill="#ADADAD"/>
<path d="M68.0995 54.5C66.9995 53.3 65.9995 51.4 65.9995 50.4C65.9995 49.4 66.7995 49.6 67.8995 50.8C68.9995 52 69.9995 53.9 69.9995 54.9C70.0995 56 69.2995 55.8 68.0995 54.5Z" fill="#AEAEAE"/>
<path d="M68.0995 54.5C66.9995 53.3 66.0995 51.5 65.9995 50.5C65.9995 49.5 66.7995 49.7 67.8995 50.9C68.9995 52.1 69.8995 53.9 69.9995 54.9C70.0995 55.9 69.1995 55.7 68.0995 54.5Z" fill="#AFAFAF"/>
<path d="M68.0996 54.5C66.9996 53.3 66.0996 51.5 66.0996 50.5C66.0996 49.5 66.8996 49.7 67.9996 50.9C69.0996 52.1 69.9996 53.9 69.9996 54.9C70.0996 55.9 69.1996 55.7 68.0996 54.5Z" fill="#B0B0B0"/>
<path d="M68.0996 54.4C66.9996 53.2 66.0996 51.5 66.0996 50.5C66.0996 49.5 66.8996 49.7 67.9996 50.9C69.0996 52.1 69.9996 53.8 69.9996 54.8C69.9996 55.8 69.1996 55.6 68.0996 54.4Z" fill="#B2B2B2"/>
<path d="M68.0996 54.4C67.0996 53.2 66.1996 51.5 66.0996 50.6C66.0996 49.6 66.8996 49.8 67.8996 51C68.8996 52.2 69.7996 53.9 69.8996 54.8C69.9996 55.8 69.1996 55.6 68.0996 54.4Z" fill="#B3B3B3"/>
<path d="M68.0997 54.4C67.0997 53.2 66.1997 51.6 66.1997 50.6C66.1997 49.7 66.9997 49.8 67.9997 51C68.9997 52.2 69.8997 53.9 69.8997 54.8C69.9997 55.7 69.1997 55.5 68.0997 54.4Z" fill="#B4B4B4"/>
<path d="M68.0997 54.4C67.0997 53.3 66.1997 51.6 66.1997 50.7C66.1997 49.8 66.9997 49.9999 67.9997 51.0999C68.9997 52.1999 69.8997 53.9 69.8997 54.8C69.8997 55.7 69.0997 55.5 68.0997 54.4Z" fill="#B5B5B5"/>
<path d="M68.0997 54.3C67.0997 53.2 66.2997 51.5 66.1997 50.6C66.1997 49.7 66.8997 49.9 67.8997 51C68.8997 52.1 69.6997 53.8 69.7997 54.7C69.8997 55.6 69.0997 55.4 68.0997 54.3Z" fill="#B6B6B6"/>
<path d="M68.0996 54.3C67.0996 53.2 66.2996 51.6 66.2996 50.7C66.2996 49.8 66.9996 49.9999 67.9996 51.0999C68.9996 52.1999 69.7996 53.8 69.7996 54.7C69.8996 55.6 69.0996 55.4 68.0996 54.3Z" fill="#B8B8B8"/>
<path d="M68.0996 54.3C67.0996 53.2 66.2996 51.6 66.2996 50.8C66.2996 49.9 66.9996 50.1 67.9996 51.2C68.9996 52.3 69.7996 53.9 69.7996 54.7C69.7996 55.5 69.0996 55.4 68.0996 54.3Z" fill="#B9B9B9"/>
<path d="M68.0996 54.2C67.1996 53.1 66.3996 51.6 66.2996 50.7C66.2996 49.8 66.9996 49.9999 67.8996 51.0999C68.7996 52.1999 69.5996 53.6999 69.6996 54.5999C69.7996 55.4999 69.0996 55.3 68.0996 54.2Z" fill="#BABABA"/>
<path d="M68.0997 54.2C67.1997 53.2 66.3997 51.6 66.3997 50.8C66.3997 50 67.0997 50.1 67.9997 51.2C68.8997 52.2 69.6997 53.8 69.6997 54.6C69.7997 55.4 69.0997 55.3 68.0997 54.2Z" fill="#BBBBBB"/>
<path d="M68.0997 54.2C67.1997 53.2 66.3997 51.7 66.3997 50.8C66.3997 50 67.0997 50.1 67.9997 51.2C68.8997 52.2 69.6997 53.7 69.6997 54.6C69.7997 55.4 68.9997 55.2 68.0997 54.2Z" fill="#BCBCBC"/>
<path d="M68.0997 54.2C67.1997 53.2 66.4997 51.7 66.3997 50.9C66.3997 50.1 67.0997 50.2 67.9997 51.2C68.8997 52.2 69.5997 53.7 69.6997 54.5C69.6997 55.3 68.9997 55.2 68.0997 54.2Z" fill="#BEBEBE"/>
<path d="M68.0997 54.1C67.1997 53.1 66.4997 51.7 66.3997 50.9C66.3997 50.1 67.0997 50.3 67.8997 51.2C68.7997 52.2 69.4997 53.6 69.5997 54.4C69.6997 55.3 68.9997 55.1 68.0997 54.1Z" fill="#BFBFBF"/>
<path d="M68.0995 54.1C67.1995 53.1 66.4995 51.7 66.4995 50.9C66.4995 50.1 67.0995 50.3 67.9995 51.2C68.8995 52.2 69.5995 53.6 69.5995 54.4C69.6995 55.2 68.9995 55.1 68.0995 54.1Z" fill="#C0C0C0"/>
<path d="M68.0995 54.1C67.2995 53.2 66.4995 51.8 66.4995 51C66.4995 50.2 67.0995 50.4 67.9995 51.3C68.7995 52.2 69.5995 53.6 69.5995 54.4C69.5995 55.2 68.9995 55 68.0995 54.1Z" fill="#C1C1C1"/>
<path d="M68.0995 54C67.2995 53.1 66.5995 51.7 66.4995 51C66.4995 50.2 67.0995 50.4 67.8995 51.3C68.6995 52.2 69.3995 53.6 69.4995 54.3C69.5995 55.1 68.9995 55 68.0995 54Z" fill="#C2C2C2"/>
<path d="M68.0996 54C67.2996 53.1 66.5996 51.8 66.5996 51C66.5996 50.3 67.1996 50.4 67.9996 51.3C68.7996 52.2 69.4996 53.5 69.4996 54.3C69.5996 55.1 68.8996 54.9 68.0996 54Z" fill="#C4C4C4"/>
<path d="M68.0996 54C67.2996 53.1 66.5996 51.8 66.5996 51.1C66.5996 50.4 67.1996 50.5 67.9996 51.4C68.7996 52.3 69.4996 53.6 69.4996 54.3C69.4996 55 68.8996 54.9 68.0996 54Z" fill="#C5C5C5"/>
<path d="M68.0996 54C67.2996 53.1 66.6996 51.9 66.5996 51.1C66.5996 50.4 67.1996 50.5 67.9996 51.4C68.7996 52.3 69.3996 53.6 69.4996 54.3C69.4996 55 68.8996 54.8 68.0996 54Z" fill="#C6C6C6"/>
<path d="M68.0997 53.9C67.2997 53 66.6997 51.8 66.6997 51.1C66.6997 50.4 67.2997 50.5 67.9997 51.4C68.7997 52.3 69.3997 53.5 69.3997 54.2C69.4997 54.9 68.8997 54.8 68.0997 53.9Z" fill="#C7C7C7"/>
<path d="M68.0997 53.9C67.3997 53.1 66.6997 51.8 66.6997 51.2C66.6997 50.5 67.2997 50.7 67.9997 51.5C68.6997 52.3 69.3997 53.6 69.3997 54.2C69.3997 54.9 68.8997 54.7 68.0997 53.9Z" fill="#C9C9C9"/>
<path d="M68.0997 53.9C67.3997 53.1 66.7997 51.9 66.6997 51.2C66.6997 50.5 67.1997 50.7 67.9997 51.5C68.6997 52.3 69.2997 53.5 69.3997 54.2C69.3997 54.8 68.7997 54.7 68.0997 53.9Z" fill="#CACACA"/>
<path d="M68.0996 53.9C67.3996 53.1 66.7996 51.9 66.7996 51.3C66.7996 50.7 67.2996 50.8 67.9996 51.6C68.6996 52.4 69.2996 53.6 69.2996 54.2C69.3996 54.8 68.7996 54.6 68.0996 53.9Z" fill="#CBCBCB"/>
<path d="M68.0996 53.8C67.3996 53 66.7996 51.9 66.7996 51.3C66.7996 50.7 67.2996 50.8 67.9996 51.6C68.6996 52.4 69.2996 53.5 69.2996 54.1C69.2996 54.7 68.7996 54.6 68.0996 53.8Z" fill="#CCCCCC"/>
<path d="M68.0996 53.8C67.3996 53 66.8996 51.9 66.7996 51.3C66.7996 50.7 67.2996 50.8 67.9996 51.6C68.6996 52.4 69.1996 53.5 69.2996 54.1C69.2996 54.7 68.7996 54.6 68.0996 53.8Z" fill="#CECECE"/>
<path d="M68.0997 53.8C67.3997 53.1 66.8997 52 66.8997 51.4C66.8997 50.8 67.3997 50.9 67.9997 51.7C68.6997 52.4 69.1997 53.5 69.1997 54.1C69.2997 54.6 68.7997 54.5 68.0997 53.8Z" fill="#CFCFCF"/>
<path d="M68.0997 53.7C67.4997 53 66.8997 51.9 66.8997 51.3C66.8997 50.7 67.3997 50.8 67.9997 51.5C68.5997 52.2 69.1997 53.3 69.1997 53.9C69.2997 54.6 68.7997 54.5 68.0997 53.7Z" fill="#D0D0D0"/>
<path d="M68.0997 53.7C67.4997 53 66.9997 52 66.8997 51.4C66.8997 50.8 67.3997 50.9 67.9997 51.6C68.5997 52.3 69.1997 53.3 69.1997 53.9C69.1997 54.5 68.6997 54.4 68.0997 53.7Z" fill="#D1D1D1"/>
<path d="M68.0995 53.7C67.4995 53 66.9995 52 66.9995 51.5C66.9995 50.9 67.4995 51.1 68.0995 51.7C68.6995 52.4 69.1995 53.4001 69.1995 53.9001C69.1995 54.5001 68.6995 54.4 68.0995 53.7Z" fill="#D2D2D2"/>
<path d="M68.0995 53.7C67.4995 53 66.9995 52.1 66.9995 51.5C66.9995 51 67.3995 51.1 67.9995 51.7C68.5995 52.4 69.0995 53.3 69.0995 53.9C69.1995 54.4 68.6995 54.3 68.0995 53.7Z" fill="#D4D4D4"/>
<path d="M68.0995 53.6C67.4995 53 66.9995 52 66.9995 51.5C66.9995 51 67.3995 51.1 67.9995 51.7C68.5995 52.3 69.0995 53.3 69.0995 53.8C69.0995 54.4 68.6995 54.3 68.0995 53.6Z" fill="#D5D5D5"/>
<path d="M68.0996 53.6C67.4996 53 67.0996 52.1 67.0996 51.6C67.0996 51.1 67.4996 51.2 68.0996 51.8C68.6996 52.4 69.0996 53.3 69.0996 53.8C69.0996 54.3 68.6996 54.2 68.0996 53.6Z" fill="#D6D6D6"/>
<path d="M68.0996 53.6C67.5996 53 67.0996 52.1 67.0996 51.6C67.0996 51.1 67.4996 51.2 67.9996 51.8C68.4996 52.4 68.9996 53.3 68.9996 53.8C69.0996 54.3 68.5996 54.2 68.0996 53.6Z" fill="#D7D7D7"/>
<path d="M68.0996 53.5C67.5996 52.9 67.0996 52.1 67.0996 51.6C67.0996 51.1 67.4996 51.2 67.9996 51.8C68.4996 52.4 68.9996 53.2 68.9996 53.7C68.9996 54.2 68.5996 54.1 68.0996 53.5Z" fill="#D9D9D9"/>
<path d="M68.0996 53.5C67.5996 52.9 67.1996 52.1 67.0996 51.6C67.0996 51.1 67.4996 51.2 67.9996 51.8C68.4996 52.4 68.8996 53.2 68.9996 53.7C68.9996 54.2 68.5996 54.1 68.0996 53.5Z" fill="#DADADA"/>
<path d="M68.0997 53.5C67.5997 53 67.1997 52.1 67.1997 51.7C67.1997 51.3 67.5997 51.3 68.0997 51.9C68.5997 52.4 68.9997 53.3 68.9997 53.7C68.9997 54.1 68.5997 54 68.0997 53.5Z" fill="#DBDBDB"/>
<path d="M68.0997 53.5C67.5997 53 67.1997 52.2 67.1997 51.8C67.1997 51.4 67.4997 51.5 67.9997 52C68.4997 52.5 68.8997 53.3 68.8997 53.7C68.8997 54.1 68.5997 54 68.0997 53.5Z" fill="#DCDCDC"/>
<path d="M68.0997 53.4C67.5997 52.9 67.2997 52.1 67.1997 51.7C67.1997 51.3 67.4997 51.4 67.9997 51.9C68.4997 52.4 68.7997 53.2 68.8997 53.6C68.8997 54 68.5997 53.9 68.0997 53.4Z" fill="#DEDEDE"/>
<path d="M68.0996 53.4C67.6996 52.9 67.2996 52.2 67.2996 51.8C67.2996 51.4 67.5996 51.5 68.0996 52C68.4996 52.5 68.8996 53.2 68.8996 53.6C68.8996 54 68.4996 53.9 68.0996 53.4Z" fill="#DFDFDF"/>
<path d="M68.0996 53.4C67.6996 52.9 67.2996 52.2 67.2996 51.8C67.2996 51.4 67.5996 51.5 67.9996 52C68.3996 52.5 68.7996 53.2 68.7996 53.6C68.7996 53.9 68.4996 53.9 68.0996 53.4Z" fill="#E0E0E0"/>
<path d="M68.0996 53.4C67.6996 52.9 67.3996 52.3 67.2996 51.9C67.2996 51.5 67.5996 51.6 67.9996 52.1C68.3996 52.6 68.6996 53.2 68.7996 53.6C68.7996 53.9 68.4996 53.8 68.0996 53.4Z" fill="#E2E2E2"/>
<path d="M68.0997 53.3C67.6997 52.9 67.3997 52.2 67.3997 51.9C67.3997 51.5 67.6997 51.6 68.0997 52C68.4997 52.4 68.7997 53.1 68.7997 53.4C68.7997 53.8 68.4997 53.8 68.0997 53.3Z" fill="#E3E3E3"/>
<path d="M68.0997 53.3C67.6997 52.9 67.3997 52.3 67.3997 51.9C67.3997 51.6 67.6997 51.6 67.9997 52C68.3997 52.4 68.6997 53 68.6997 53.4C68.7997 53.8 68.4997 53.7 68.0997 53.3Z" fill="#E4E4E4"/>
<path d="M68.0997 53.3C67.6997 52.9 67.3997 52.3 67.3997 52C67.3997 51.7 67.6997 51.7 67.9997 52.1C68.3997 52.5 68.6997 53.1 68.6997 53.4C68.6997 53.7 68.3997 53.7 68.0997 53.3Z" fill="#E5E5E5"/>
<path d="M68.0995 53.2C67.7995 52.8 67.4995 52.3 67.4995 52C67.4995 51.7 67.7995 51.8 68.0995 52.1C68.3995 52.5 68.6995 53 68.6995 53.3C68.6995 53.7 68.3995 53.6 68.0995 53.2Z" fill="#E7E7E7"/>
<path d="M68.0995 53.2C67.7995 52.8 67.4995 52.3 67.4995 52C67.4995 51.7 67.6995 51.8 68.0995 52.1C68.3995 52.5 68.6995 53 68.6995 53.3C68.6995 53.6 68.3995 53.6 68.0995 53.2Z" fill="#E8E8E8"/>
<path d="M68.0995 53.2C67.7995 52.9 67.4995 52.3999 67.4995 52.0999C67.4995 51.7999 67.6995 51.9 67.9995 52.2C68.2995 52.5 68.5995 53 68.5995 53.3C68.5995 53.6 68.3995 53.5 68.0995 53.2Z" fill="#E9E9E9"/>
<path d="M68.0996 53.2C67.7996 52.9 67.5996 52.3999 67.5996 52.0999C67.5996 51.7999 67.7996 51.9 68.0996 52.2C68.3996 52.5 68.5996 53 68.5996 53.3C68.5996 53.5 68.3996 53.5 68.0996 53.2Z" fill="#EAEAEA"/>
<path d="M68.0996 53.1C67.7996 52.8 67.5996 52.4 67.5996 52.1C67.5996 51.9 67.7996 51.9 68.0996 52.2C68.3996 52.5 68.5996 52.9 68.5996 53.2C68.5996 53.5 68.3996 53.4 68.0996 53.1Z" fill="#ECECEC"/>
<path d="M68.0996 53.1C67.7996 52.8 67.5996 52.4 67.5996 52.2C67.5996 52 67.7996 52 67.9996 52.3C68.2996 52.6 68.4996 53 68.4996 53.2C68.4996 53.4 68.2996 53.4 68.0996 53.1Z" fill="#EDEDED"/>
<path d="M68.0997 53.1C67.8997 52.8 67.6997 52.4 67.6997 52.2C67.6997 52 67.8997 52 68.0997 52.3C68.2997 52.6 68.4997 53 68.4997 53.2C68.4997 53.4 68.2997 53.3 68.0997 53.1Z" fill="#EEEEEE"/>
<path d="M68.0997 53C67.8997 52.8 67.6997 52.4 67.6997 52.2C67.6997 52 67.8997 52 68.0997 52.3C68.2997 52.5 68.4997 52.9 68.4997 53.1C68.4997 53.3 68.2997 53.3 68.0997 53Z" fill="#F0F0F0"/>
<path d="M68.0997 53C67.8997 52.8 67.6997 52.4 67.6997 52.3C67.6997 52.1 67.7997 52.2 68.0997 52.4C68.2997 52.6 68.4997 53 68.4997 53.1C68.3997 53.3 68.2997 53.2 68.0997 53Z" fill="#F1F1F1"/>
<path d="M68.0996 53C67.8996 52.8 67.7996 52.5 67.7996 52.3C67.7996 52.1 67.8996 52.2 68.0996 52.4C68.2996 52.6 68.3996 52.9 68.3996 53.1C68.3996 53.2 68.2996 53.2 68.0996 53Z" fill="#F2F2F2"/>
<path d="M68.0996 53C67.8996 52.8 67.7996 52.5 67.7996 52.4C67.7996 52.2 67.8996 52.3 68.0996 52.5C68.2996 52.7 68.3996 53 68.3996 53.1C68.3996 53.2 68.1996 53.2 68.0996 53Z" fill="#F3F3F3"/>
<path d="M68.0996 52.9C67.8996 52.7 67.7996 52.5 67.7996 52.3C67.7996 52.2 67.8996 52.2 68.0996 52.4C68.2996 52.6 68.3996 52.8 68.3996 53C68.2996 53.1 68.1996 53.1 68.0996 52.9Z" fill="#F5F5F5"/>
<path d="M68.0996 52.9C67.9996 52.7 67.8996 52.5 67.7996 52.4C67.7996 52.3 67.8996 52.3 67.9996 52.5C68.0996 52.7 68.1996 52.9 68.2996 53C68.2996 53.1 68.1996 53.1 68.0996 52.9Z" fill="#F6F6F6"/>
<path d="M68.0997 52.9C67.9997 52.8 67.8997 52.6 67.8997 52.5C67.8997 52.4 67.9997 52.4 68.0997 52.5C68.1997 52.6 68.2997 52.8 68.2997 52.9C68.2997 53 68.1997 53 68.0997 52.9Z" fill="#F7F7F7"/>
<path d="M68.0997 52.9C67.9997 52.8 67.8997 52.6 67.8997 52.5C67.8997 52.4 67.9997 52.4 68.0997 52.5C68.1997 52.6 68.2997 52.8 68.2997 52.9C68.2997 53 68.1997 53 68.0997 52.9Z" fill="#F9F9F9"/>
<path d="M68.0997 52.8C67.9997 52.7 67.8997 52.6 67.8997 52.5C67.8997 52.4 67.9997 52.4 67.9997 52.5C68.0997 52.6 68.1997 52.7 68.1997 52.8C68.1997 52.9 68.1997 52.9 68.0997 52.8Z" fill="#FAFAFA"/>
<path d="M68.0995 52.8C67.9995 52.7 67.9995 52.6 67.9995 52.6C67.9995 52.5 67.9995 52.6 68.0995 52.6C68.1995 52.7 68.1995 52.8 68.1995 52.8C68.1995 52.9 68.0995 52.9 68.0995 52.8Z" fill="#FBFBFB"/>
<path d="M68.0995 52.8C67.9995 52.7 67.9995 52.7 67.9995 52.6C67.9995 52.6 67.9995 52.6 68.0995 52.6C68.0995 52.7 68.1995 52.7 68.0995 52.8C68.1995 52.8 68.0995 52.8 68.0995 52.8Z" fill="#FCFCFC"/>
<path d="M68.0995 52.7L67.9995 52.6C67.9995 52.6 67.9995 52.6 68.0995 52.6C68.0995 52.7 68.0995 52.7 68.0995 52.7C68.0995 52.8 68.0995 52.8 68.0995 52.7Z" fill="#FEFEFE"/>
<path d="M68.0997 52.7C68.0997 52.7 67.9997 52.7 68.0997 52.7C67.9997 52.6 67.9997 52.6 68.0997 52.7Z" fill="white"/>
</g>
<defs>
<filter id="filter0_f_48_3794" x="0.636719" y="0" width="78.1575" height="85.1" filterUnits="userSpaceOnUse" color-interpolation-filters="sRGB">
<feFlood flood-opacity="0" result="BackgroundImageFix"/>
<feBlend mode="normal" in="SourceGraphic" in2="BackgroundImageFix" result="shape"/>
<feGaussianBlur stdDeviation="3" result="effect1_foregroundBlur_48_3794"/>
</filter>
</defs>
</svg>
