<svg width="63" height="86" viewBox="0 0 63 86" fill="none" xmlns="http://www.w3.org/2000/svg">
<g filter="url(#filter0_f_48_3756)">
<path d="M55.2 78.2C55.2 75.4 55.2 72.4 55.2 69.5C55.2 68.4 55.1 67.9 54.1 67.7L53.6 67.6L53.7 67.1C53.8 66.6 53.9 66.1 54.1 65.6C54.4 64.5 54.6 63.4 54.9 62.3L55.1 61.4C55.8 58.8 56.5 56 56.5 53.2C56.5 50.9 56.5 48.6 56.5 46.3C56.5 44.8 56.5 43.2 56.5 41.7C56.5 41 56.4 40.4 56.4 39.8C55.9 36.3 52.8 33.7 49.3 33.7C48.8 33.7 48.4 33.7 47.9 33.8H47.7C47.3 33.8 46.9 33.6 46.7 33.4C44.7 31.5 42.5 30.9 40 31.5C39.4 31.6 39 31.5 38.6 31.1C37.6 30.1 36.4 29.5 35 29.3C34.4 29.2 33.8 29.2 33.1 29.3C32.8 29.3 32.5 29.3 32.2 29.3H31.7V28.5C31.7 28.3 31.7 28.1 31.7 28C31.7 26.9 31.7 25.8 31.6 24.8C31.6 22.3 31.5 19.8 31.4 17.3C31.3 14.6 29.1 12.5 26.4 12.5C25.7 12.5 25 12.6 24.4 12.9C22.3 13.8 21.3 15.5 21.3 17.9C21.3 24.2 21.3 30.5 21.3 36.8V46.4L20.5 45.8C20 45.4 19.6 45 19.3 44.6C19.1 44.4 18.9 44.1 18.7 43.9C18.3 43.4 18 42.9 17.5 42.5C16.1 41 14.2 40.2 12.2 40.2C10.8 40.2 9.49999 40.6 8.39999 41.4C7.39999 42.1 6.9 42.9 6.8 43.8C6.7 44.6 6.99999 45.5 7.69999 46.4C9.29999 48.4 10.5 50.5 11.3 52.8C12.3 55.7 14.2 58.1 16.8 60L17.1 60.2C18.1 61 19.2 61.8 20.2 62.6C21.6 63.7 22.4 65.3 22.6 67.1V67.6L22.2 67.7C21.5 67.9 21.3 68.3 21.3 69.2C21.3 72.1 21.3 75.2 21.3 78.5C21.3 79.2 21.5 79.6 22 79.8H54.7C55 79.5 55.2 79 55.2 78.2ZM53.2 77.9H23V69.6H31.2C32 69.6 32.4 69.3 32.4 68.7C32.4 68.4 32.3 68.2 32.2 68.1C32 67.9 31.6 67.8 31.2 67.8H26.8H24.4L24.2 66.9C24.1 66.6 24.1 66.3 24 66C23.6 63.9 22.4 62.1 20.5 60.6C20 60.2 19.5 59.9 19 59.5C18.3 59 17.5 58.4 16.8 57.9C15 56.5 13.7 54.6 12.9 52.5C11.8 49.6 10.5 47.2 8.8 45.2C8.4 44.7 8.09999 44 8.89999 43.1C9.89999 42.2 11.1 41.8 12.4 42C14.1 42.3 15.4 43 16.3 44.2C16.5 44.5 16.7 44.7 16.9 45C17.3 45.6 17.8 46.2 18.2 46.7C18.7 47.2 19.2 47.7 19.6 48.1C19.7 48.2 19.8 48.2 19.9 48.3C20.4 48.7 21.1 49.2 21 50.3C21 50.4 21.1 50.5 21.1 50.5C21.3 50.7 21.6 50.8 21.8 50.8C22.3 50.8 22.6 50.4 22.7 50C22.7 49.8 22.7 49.6 22.7 49.4V49.2V18C22.7 16.3 23.4 15.1 24.8 14.5C25.2 14.4 25.5 14.3 25.9 14.3C27.5 14.3 28.9 15.6 29.1 17.2C29.2 17.9 29.2 18.6 29.2 19.2V19.5C29.3 23.6 29.4 27.8 29.5 31.9L29.6 36.5C29.6 36.6 29.6 36.8 29.6 36.9C29.7 37.5 30 37.8 30.5 37.8C31.1 37.8 31.4 37.4 31.4 36.8C31.4 35.4 31.4 33.9 31.3 32.5C31.2 31.4 31.9 31.1 32.5 31C32.8 30.9 33.2 30.9 33.5 30.9C35.8 30.9 37.8 32.7 37.9 35C37.9 35.5 38.1 36.1 38.8 36.1C39.7 36.1 39.7 35.3 39.7 35C39.7 34.7 39.7 34.5 39.6 34.2L39.5 33.4L39.9 33.3C40.3 33.2 40.7 33.1 41.2 33.1C43.4 33.1 45.4 34.8 45.7 36.8V37.1C45.7 37.3 45.7 37.4 45.8 37.6C45.9 38 46.3 38.3 46.7 38.3C47.2 38.3 47.6 37.9 47.6 37.4C47.6 37.1 47.6 36.8 47.6 36.6V35.8L48 35.7C48.3 35.6 48.6 35.6 48.9 35.6C50.9 35.6 52.8 37 53.6 38.8C53.9 39.6 54.1 40.4 54.1 41.2C54.1 45 54.2 49.4 54.1 53.7C54.1 55.3 53.7 56.9 53.4 58.3C52.9 60.4 52.4 62.4 51.9 64.6C51.7 65.5 51.5 66.4 51.2 67.3L51.1 67.7H44.6C44.5 67.7 44.4 67.7 44.2 67.7C43.6 67.7 43.2 68.1 43.2 68.6C43.2 69.1 43.6 69.5 44.2 69.5C44.9 69.5 45.7 69.5 46.4 69.5H52.7V77.9H53.2Z" fill="#DF00FF"/>
<path d="M15.8999 18.7C16.3999 18.7 16.6999 18.4 16.7999 17.8C16.7999 17.6 16.7999 17.5 16.7999 17.3V17.1C16.9999 12.3 21.0999 8.30001 25.7999 8.20001C31.1999 8.00001 35.4999 12 35.7999 17.5C35.7999 18 35.9999 18.7 36.6999 18.7C36.9999 18.7 37.1999 18.6 37.3999 18.4C37.5999 18.2 37.6999 17.8 37.6999 17.5C37.3999 12.8 35.0999 9.40002 30.8999 7.40002C30.1999 7.10002 29.4999 6.90001 28.6999 6.70001C28.2999 6.60001 27.9999 6.50002 27.5999 6.40002H25.0999C24.9999 6.40002 24.7999 6.5 24.6999 6.5C21.6999 6.9 19.1999 8.40001 17.3999 10.7C15.7999 12.8 14.8999 15.1 14.9999 17.7C14.8999 18.3 15.2999 18.7 15.8999 18.7V19.2V18.7Z" fill="#DF00FF"/>
<path d="M38.2 69.6C38.7 69.6 39.1 69.2 39.1 68.7C39.1 68.4 39 68.2 38.9 68C38.7 67.8 38.5 67.7 38.3 67.7C38 67.7 37.8 67.8 37.6 68C37.4 68.2 37.3 68.4 37.3 68.6C37.2 69.2 37.6 69.6 38.2 69.6V70.1V69.6Z" fill="#DF00FF"/>
</g>
<path d="M55.2 78.2C55.2 75.4 55.2 72.4 55.2 69.5C55.2 68.4 55.1 67.9 54.1 67.7L53.6 67.6L53.7 67.1C53.8 66.6 53.9 66.1 54.1 65.6C54.4 64.5 54.6 63.4 54.9 62.3L55.1 61.4C55.8 58.8 56.5 56 56.5 53.2C56.5 50.9 56.5 48.6 56.5 46.3C56.5 44.8 56.5 43.2 56.5 41.7C56.5 41 56.4 40.4 56.4 39.8C55.9 36.3 52.8 33.7 49.3 33.7C48.8 33.7 48.4 33.7 47.9 33.8H47.7C47.3 33.8 46.9 33.6 46.7 33.4C44.7 31.5 42.5 30.9 40 31.5C39.4 31.6 39 31.5 38.6 31.1C37.6 30.1 36.4 29.5 35 29.3C34.4 29.2 33.8 29.2 33.1 29.3C32.8 29.3 32.5 29.3 32.2 29.3H31.7V28.5C31.7 28.3 31.7 28.1 31.7 28C31.7 26.9 31.7 25.8 31.6 24.8C31.6 22.3 31.5 19.8 31.4 17.3C31.3 14.6 29.1 12.5 26.4 12.5C25.7 12.5 25 12.6 24.4 12.9C22.3 13.8 21.3 15.5 21.3 17.9C21.3 24.2 21.3 30.5 21.3 36.8V46.4L20.5 45.8C20 45.4 19.6 45 19.3 44.6C19.1 44.4 18.9 44.1 18.7 43.9C18.3 43.4 18 42.9 17.5 42.5C16.1 41 14.2 40.2 12.2 40.2C10.8 40.2 9.49999 40.6 8.39999 41.4C7.39999 42.1 6.9 42.9 6.8 43.8C6.7 44.6 6.99999 45.5 7.69999 46.4C9.29999 48.4 10.5 50.5 11.3 52.8C12.3 55.7 14.2 58.1 16.8 60L17.1 60.2C18.1 61 19.2 61.8 20.2 62.6C21.6 63.7 22.4 65.3 22.6 67.1V67.6L22.2 67.7C21.5 67.9 21.3 68.3 21.3 69.2C21.3 72.1 21.3 75.2 21.3 78.5C21.3 79.2 21.5 79.6 22 79.8H54.7C55 79.5 55.2 79 55.2 78.2ZM53.2 77.9H23V69.6H31.2C32 69.6 32.4 69.3 32.4 68.7C32.4 68.4 32.3 68.2 32.2 68.1C32 67.9 31.6 67.8 31.2 67.8H26.8H24.4L24.2 66.9C24.1 66.6 24.1 66.3 24 66C23.6 63.9 22.4 62.1 20.5 60.6C20 60.2 19.5 59.9 19 59.5C18.3 59 17.5 58.4 16.8 57.9C15 56.5 13.7 54.6 12.9 52.5C11.8 49.6 10.5 47.2 8.8 45.2C8.4 44.7 8.09999 44 8.89999 43.1C9.89999 42.2 11.1 41.8 12.4 42C14.1 42.3 15.4 43 16.3 44.2C16.5 44.5 16.7 44.7 16.9 45C17.3 45.6 17.8 46.2 18.2 46.7C18.7 47.2 19.2 47.7 19.6 48.1C19.7 48.2 19.8 48.2 19.9 48.3C20.4 48.7 21.1 49.2 21 50.3C21 50.4 21.1 50.5 21.1 50.5C21.3 50.7 21.6 50.8 21.8 50.8C22.3 50.8 22.6 50.4 22.7 50C22.7 49.8 22.7 49.6 22.7 49.4V49.2V18C22.7 16.3 23.4 15.1 24.8 14.5C25.2 14.4 25.5 14.3 25.9 14.3C27.5 14.3 28.9 15.6 29.1 17.2C29.2 17.9 29.2 18.6 29.2 19.2V19.5C29.3 23.6 29.4 27.8 29.5 31.9L29.6 36.5C29.6 36.6 29.6 36.8 29.6 36.9C29.7 37.5 30 37.8 30.5 37.8C31.1 37.8 31.4 37.4 31.4 36.8C31.4 35.4 31.4 33.9 31.3 32.5C31.2 31.4 31.9 31.1 32.5 31C32.8 30.9 33.2 30.9 33.5 30.9C35.8 30.9 37.8 32.7 37.9 35C37.9 35.5 38.1 36.1 38.8 36.1C39.7 36.1 39.7 35.3 39.7 35C39.7 34.7 39.7 34.5 39.6 34.2L39.5 33.4L39.9 33.3C40.3 33.2 40.7 33.1 41.2 33.1C43.4 33.1 45.4 34.8 45.7 36.8V37.1C45.7 37.3 45.7 37.4 45.8 37.6C45.9 38 46.3 38.3 46.7 38.3C47.2 38.3 47.6 37.9 47.6 37.4C47.6 37.1 47.6 36.8 47.6 36.6V35.8L48 35.7C48.3 35.6 48.6 35.6 48.9 35.6C50.9 35.6 52.8 37 53.6 38.8C53.9 39.6 54.1 40.4 54.1 41.2C54.1 45 54.2 49.4 54.1 53.7C54.1 55.3 53.7 56.9 53.4 58.3C52.9 60.4 52.4 62.4 51.9 64.6C51.7 65.5 51.5 66.4 51.2 67.3L51.1 67.7H44.6C44.5 67.7 44.4 67.7 44.2 67.7C43.6 67.7 43.2 68.1 43.2 68.6C43.2 69.1 43.6 69.5 44.2 69.5C44.9 69.5 45.7 69.5 46.4 69.5H52.7V77.9H53.2Z" fill="white"/>
<path d="M15.8999 18.7C16.3999 18.7 16.6999 18.4 16.7999 17.8C16.7999 17.6 16.7999 17.5 16.7999 17.3V17.1C16.9999 12.3 21.0999 8.30001 25.7999 8.20001C31.1999 8.00001 35.4999 12 35.7999 17.5C35.7999 18 35.9999 18.7 36.6999 18.7C36.9999 18.7 37.1999 18.6 37.3999 18.4C37.5999 18.2 37.6999 17.8 37.6999 17.5C37.3999 12.8 35.0999 9.40002 30.8999 7.40002C30.1999 7.10002 29.4999 6.90001 28.6999 6.70001C28.2999 6.60001 27.9999 6.50002 27.5999 6.40002H25.0999C24.9999 6.40002 24.7999 6.5 24.6999 6.5C21.6999 6.9 19.1999 8.40001 17.3999 10.7C15.7999 12.8 14.8999 15.1 14.9999 17.7C14.8999 18.3 15.2999 18.7 15.8999 18.7V19.2V18.7Z" fill="white"/>
<path d="M38.2 69.6C38.7 69.6 39.1 69.2 39.1 68.7C39.1 68.4 39 68.2 38.9 68C38.7 67.8 38.5 67.7 38.3 67.7C38 67.7 37.8 67.8 37.6 68C37.4 68.2 37.3 68.4 37.3 68.6C37.2 69.2 37.6 69.6 38.2 69.6V70.1V69.6Z" fill="white"/>
<defs>
<filter id="filter0_f_48_3756" x="0.78125" y="0.400024" width="61.7188" height="85.4" filterUnits="userSpaceOnUse" color-interpolation-filters="sRGB">
<feFlood flood-opacity="0" result="BackgroundImageFix"/>
<feBlend mode="normal" in="SourceGraphic" in2="BackgroundImageFix" result="shape"/>
<feGaussianBlur stdDeviation="3" result="effect1_foregroundBlur_48_3756"/>
</filter>
</defs>
</svg>
