<svg width="80" height="77" viewBox="0 0 80 77" fill="none" xmlns="http://www.w3.org/2000/svg">
<g filter="url(#filter0_f_48_1096)">
<path d="M22.5 6.40002C22.7 6.50002 23 6.59998 23.2 6.59998C25 7.19998 26 8.49999 26.3 10.3C26.4 10.6 26.4 11 26.4 11.4C26.4 30.7 26.4 46 26.4 65.3C26.4 67.6 25.4 69.3 23.5 70C23.2 70.1 22.9 70.2 22.6 70.3C18.3 70.3 14 70.3 9.70001 70.3C8.70001 70 7.69998 69.6 7.09998 68.7C6.59998 68 6.3 67.3 6 66.6C6 46.4 6 30.3 6 10C6.3 9.4 6.49999 8.80001 6.79999 8.20001C7.49999 7.10001 8.59999 6.60001 9.79999 6.20001C14 6.40001 18.3 6.40002 22.5 6.40002ZM8.20001 38.4C8.20001 48.1 8.20001 55.8 8.20001 65.5C8.20001 67.2 9.09999 68.1 10.8 68.1C14.4 68.1 17.9 68.1 21.5 68.1C23.2 68.1 24.1 67.2 24.1 65.5C24.1 46.1 24.1 30.7 24.1 11.3C24.1 9.59999 23.2 8.70001 21.5 8.70001C18 8.70001 14.5 8.70001 10.9 8.70001C9.00002 8.70001 8.20001 9.60002 8.20001 11.4C8.20001 21.1 8.20001 28.7 8.20001 38.4Z" fill="#DF00FF"/>
<path d="M57.2999 70.4C57.0999 70.3 56.7999 70.2 56.5999 70.2C54.7999 69.6 53.7999 68.3 53.4999 66.5C53.3999 66.2 53.3999 65.8 53.3999 65.4C53.3999 46.1 53.3999 30.8 53.3999 11.5C53.3999 9.2 54.3999 7.49999 56.2999 6.79999C56.5999 6.69999 56.8999 6.6 57.1999 6.5C61.4999 6.5 65.6999 6.5 69.9999 6.5C70.6999 6.8 71.3999 7.00002 71.9999 7.40002C73.0999 8.10002 73.4999 9.19999 73.7999 10.3C73.7999 30.4 73.7999 46.5 73.7999 66.6C73.4999 68 72.7999 69.2 71.4999 69.9C71.0999 70.1 70.5999 70.3 70.0999 70.5C65.8999 70.4 61.5999 70.4 57.2999 70.4ZM71.6998 38.4C71.6998 28.7 71.6998 21 71.6998 11.3C71.6998 9.59999 70.7999 8.70001 69.0999 8.70001C65.5999 8.70001 62.0999 8.70001 58.5999 8.70001C56.5999 8.70001 55.7999 9.5 55.7999 11.5C55.7999 16.8 55.7999 20.1 55.7999 25.3C55.7999 39.3 55.7999 51.4 55.7999 65.4C55.7999 67.3 56.5999 68.1 58.4999 68.1C61.9999 68.1 65.4999 68.1 68.8999 68.1C70.7999 68.1 71.5999 67.3 71.5999 65.3C71.6999 55.7 71.6998 48.1 71.6998 38.4Z" fill="#DF00FF"/>
<path d="M32.6999 37.2C34.6999 37.2 36.7999 37.2 38.7999 37.2C38.8999 36.3 38.5999 35 39.9999 35C41.3999 35 40.9999 36.3 41.1999 37.2C43.1999 37.2 45.2999 37.2 47.2999 37.2C47.2999 37.1 47.2999 37.1 47.2999 37.1C46.6999 36.2 46.6999 35.7 47.2999 35.2C47.7999 34.8 48.3999 34.9 49.0999 35.6C49.6999 36.2 50.3 36.8 50.9 37.4C51.6 38.1 51.6 38.6 50.9 39.3C50.3 39.9 49.5999 40.6 48.9999 41.2C48.3999 41.8 47.7999 41.9 47.2999 41.5C46.7999 41.1 46.7999 40.5 47.1999 39.8C47.1999 39.8 47.2999 39.7 47.2999 39.6C45.1999 39.6 43.1999 39.6 41.1999 39.6C41.0999 40.5 41.3999 41.8 39.9999 41.8C38.5999 41.8 38.9999 40.5 38.7999 39.6C36.7999 39.6 34.6999 39.6 32.6999 39.6C32.6999 39.7 32.6999 39.7 32.6999 39.7C33.1999 40.5 33.2999 41.1 32.6999 41.5C32.1999 42 31.6 41.8 30.9 41.1C30.3 40.5 29.6999 39.9 29.0999 39.3C28.4999 38.7 28.4999 38.1 29.0999 37.5C29.6999 36.8 30.3999 36.2 31.0999 35.5C31.6999 34.9 32.2999 34.8 32.7999 35.3C33.2999 35.7 33.2999 36.3 32.7999 37.1C32.6999 37.1 32.6999 37.1 32.6999 37.2Z" fill="#DF00FF"/>
<path d="M41.0999 56.5C41.0999 57.2 41.0999 57.9 41.0999 58.6C41.0999 59.4 40.5999 59.9 39.9999 59.9C39.2999 59.9 38.8999 59.4 38.8999 58.6C38.8999 57.2 38.8999 55.8 38.8999 54.3C38.8999 53.5 39.3999 53 40.0999 53C40.7999 53 41.1999 53.5 41.1999 54.2V54.3C41.0999 55.2 41.0999 55.9 41.0999 56.5Z" fill="#DF00FF"/>
<path d="M38.7999 20.2C38.7999 19.5 38.7999 18.8 38.7999 18.1C38.7999 17.3 39.3 16.8 39.9 16.8C40.6 16.8 40.9999 17.3 40.9999 18.1C40.9999 19.5 40.9999 20.9 40.9999 22.3C40.9999 23.1 40.6 23.6 39.9 23.6C39.2 23.6 38.8 23.1 38.7 22.3C38.8 21.6 38.7999 20.9 38.7999 20.2Z" fill="#DF00FF"/>
<path d="M38.8 47.4C38.8 46.7 38.8 46.1 38.8 45.4C38.8 44.5 39.2001 44.1 40.0001 44.1C40.7001 44.1 41.1 44.6 41.1 45.4C41.1 46.8 41.1 48.2 41.1 49.6C41.1 50.4 40.6001 50.9 40.0001 50.9C39.3001 50.9 38.9 50.4 38.8 49.6C38.8 48.8 38.8 48.1 38.8 47.4Z" fill="#DF00FF"/>
<path d="M41.0999 29.3C41.0999 30 41.0999 30.7 41.0999 31.4C41.0999 32.2 40.6999 32.7 39.9999 32.7C39.2999 32.7 38.8999 32.2 38.8999 31.4C38.8999 30 38.8999 28.6 38.8999 27.1C38.8999 26.3 39.3999 25.9 39.9999 25.8C40.6999 25.8 41.0999 26.3 41.1999 27.1V27.2C41.0999 28 41.0999 28.7 41.0999 29.3Z" fill="#DF00FF"/>
<path d="M38.8 65.6C38.8 64.9 38.8 64.2 38.8 63.5C38.8 62.8 39.3001 62.3 39.9001 62.3C40.5001 62.3 41.0001 62.8 41.0001 63.5C41.0001 65 41.0001 66.4 41.0001 67.9C41.0001 68.7 40.5001 69.1 39.9001 69.1C39.2001 69.1 38.8 68.6 38.8 67.9C38.8 67.1 38.8 66.3 38.8 65.6Z" fill="#DF00FF"/>
<path d="M41.1 11.2C41.1 11.9 41.1 12.6 41.1 13.3C41.1 14.1 40.6001 14.6 39.9001 14.6C39.3001 14.6 38.8 14.1 38.8 13.3C38.8 11.9 38.8 10.4 38.8 9C38.8 8.2 39.3001 7.79999 39.9001 7.79999C40.6001 7.79999 41.0001 8.2 41.0001 9V9.09998C41.1001 9.79998 41.1 10.5 41.1 11.2Z" fill="#DF00FF"/>
</g>
<path d="M22.5 6.40002C22.7 6.50002 23 6.59998 23.2 6.59998C25 7.19998 26 8.49999 26.3 10.3C26.4 10.6 26.4 11 26.4 11.4C26.4 30.7 26.4 46 26.4 65.3C26.4 67.6 25.4 69.3 23.5 70C23.2 70.1 22.9 70.2 22.6 70.3C18.3 70.3 14 70.3 9.70001 70.3C8.70001 70 7.69998 69.6 7.09998 68.7C6.59998 68 6.3 67.3 6 66.6C6 46.4 6 30.3 6 10C6.3 9.4 6.49999 8.80001 6.79999 8.20001C7.49999 7.10001 8.59999 6.60001 9.79999 6.20001C14 6.40001 18.3 6.40002 22.5 6.40002ZM8.20001 38.4C8.20001 48.1 8.20001 55.8 8.20001 65.5C8.20001 67.2 9.09999 68.1 10.8 68.1C14.4 68.1 17.9 68.1 21.5 68.1C23.2 68.1 24.1 67.2 24.1 65.5C24.1 46.1 24.1 30.7 24.1 11.3C24.1 9.59999 23.2 8.70001 21.5 8.70001C18 8.70001 14.5 8.70001 10.9 8.70001C9.00002 8.70001 8.20001 9.60002 8.20001 11.4C8.20001 21.1 8.20001 28.7 8.20001 38.4Z" fill="white"/>
<path d="M57.2999 70.4C57.0999 70.3 56.7999 70.2 56.5999 70.2C54.7999 69.6 53.7999 68.3 53.4999 66.5C53.3999 66.2 53.3999 65.8 53.3999 65.4C53.3999 46.1 53.3999 30.8 53.3999 11.5C53.3999 9.2 54.3999 7.49999 56.2999 6.79999C56.5999 6.69999 56.8999 6.6 57.1999 6.5C61.4999 6.5 65.6999 6.5 69.9999 6.5C70.6999 6.8 71.3999 7.00002 71.9999 7.40002C73.0999 8.10002 73.4999 9.19999 73.7999 10.3C73.7999 30.4 73.7999 46.5 73.7999 66.6C73.4999 68 72.7999 69.2 71.4999 69.9C71.0999 70.1 70.5999 70.3 70.0999 70.5C65.8999 70.4 61.5999 70.4 57.2999 70.4ZM71.6998 38.4C71.6998 28.7 71.6998 21 71.6998 11.3C71.6998 9.59999 70.7999 8.70001 69.0999 8.70001C65.5999 8.70001 62.0999 8.70001 58.5999 8.70001C56.5999 8.70001 55.7999 9.5 55.7999 11.5C55.7999 16.8 55.7999 20.1 55.7999 25.3C55.7999 39.3 55.7999 51.4 55.7999 65.4C55.7999 67.3 56.5999 68.1 58.4999 68.1C61.9999 68.1 65.4999 68.1 68.8999 68.1C70.7999 68.1 71.5999 67.3 71.5999 65.3C71.6999 55.7 71.6998 48.1 71.6998 38.4Z" fill="white"/>
<path d="M32.6999 37.2C34.6999 37.2 36.7999 37.2 38.7999 37.2C38.8999 36.3 38.5999 35 39.9999 35C41.3999 35 40.9999 36.3 41.1999 37.2C43.1999 37.2 45.2999 37.2 47.2999 37.2C47.2999 37.1 47.2999 37.1 47.2999 37.1C46.6999 36.2 46.6999 35.7 47.2999 35.2C47.7999 34.8 48.3999 34.9 49.0999 35.6C49.6999 36.2 50.3 36.8 50.9 37.4C51.6 38.1 51.6 38.6 50.9 39.3C50.3 39.9 49.5999 40.6 48.9999 41.2C48.3999 41.8 47.7999 41.9 47.2999 41.5C46.7999 41.1 46.7999 40.5 47.1999 39.8C47.1999 39.8 47.2999 39.7 47.2999 39.6C45.1999 39.6 43.1999 39.6 41.1999 39.6C41.0999 40.5 41.3999 41.8 39.9999 41.8C38.5999 41.8 38.9999 40.5 38.7999 39.6C36.7999 39.6 34.6999 39.6 32.6999 39.6C32.6999 39.7 32.6999 39.7 32.6999 39.7C33.1999 40.5 33.2999 41.1 32.6999 41.5C32.1999 42 31.6 41.8 30.9 41.1C30.3 40.5 29.6999 39.9 29.0999 39.3C28.4999 38.7 28.4999 38.1 29.0999 37.5C29.6999 36.8 30.3999 36.2 31.0999 35.5C31.6999 34.9 32.2999 34.8 32.7999 35.3C33.2999 35.7 33.2999 36.3 32.7999 37.1C32.6999 37.1 32.6999 37.1 32.6999 37.2Z" fill="white"/>
<path d="M41.0999 56.5C41.0999 57.2 41.0999 57.9 41.0999 58.6C41.0999 59.4 40.5999 59.9 39.9999 59.9C39.2999 59.9 38.8999 59.4 38.8999 58.6C38.8999 57.2 38.8999 55.8 38.8999 54.3C38.8999 53.5 39.3999 53 40.0999 53C40.7999 53 41.1999 53.5 41.1999 54.2V54.3C41.0999 55.2 41.0999 55.9 41.0999 56.5Z" fill="white"/>
<path d="M38.7999 20.2C38.7999 19.5 38.7999 18.8 38.7999 18.1C38.7999 17.3 39.3 16.8 39.9 16.8C40.6 16.8 40.9999 17.3 40.9999 18.1C40.9999 19.5 40.9999 20.9 40.9999 22.3C40.9999 23.1 40.6 23.6 39.9 23.6C39.2 23.6 38.8 23.1 38.7 22.3C38.8 21.6 38.7999 20.9 38.7999 20.2Z" fill="white"/>
<path d="M38.8 47.4C38.8 46.7 38.8 46.1 38.8 45.4C38.8 44.5 39.2001 44.1 40.0001 44.1C40.7001 44.1 41.1 44.6 41.1 45.4C41.1 46.8 41.1 48.2 41.1 49.6C41.1 50.4 40.6001 50.9 40.0001 50.9C39.3001 50.9 38.9 50.4 38.8 49.6C38.8 48.8 38.8 48.1 38.8 47.4Z" fill="white"/>
<path d="M41.0999 29.3C41.0999 30 41.0999 30.7 41.0999 31.4C41.0999 32.2 40.6999 32.7 39.9999 32.7C39.2999 32.7 38.8999 32.2 38.8999 31.4C38.8999 30 38.8999 28.6 38.8999 27.1C38.8999 26.3 39.3999 25.9 39.9999 25.8C40.6999 25.8 41.0999 26.3 41.1999 27.1V27.2C41.0999 28 41.0999 28.7 41.0999 29.3Z" fill="white"/>
<path d="M38.8 65.6C38.8 64.9 38.8 64.2 38.8 63.5C38.8 62.8 39.3001 62.3 39.9001 62.3C40.5001 62.3 41.0001 62.8 41.0001 63.5C41.0001 65 41.0001 66.4 41.0001 67.9C41.0001 68.7 40.5001 69.1 39.9001 69.1C39.2001 69.1 38.8 68.6 38.8 67.9C38.8 67.1 38.8 66.3 38.8 65.6Z" fill="white"/>
<path d="M41.1 11.2C41.1 11.9 41.1 12.6 41.1 13.3C41.1 14.1 40.6001 14.6 39.9001 14.6C39.3001 14.6 38.8 14.1 38.8 13.3C38.8 11.9 38.8 10.4 38.8 9C38.8 8.2 39.3001 7.79999 39.9001 7.79999C40.6001 7.79999 41.0001 8.2 41.0001 9V9.09998C41.1001 9.79998 41.1 10.5 41.1 11.2Z" fill="white"/>
<defs>
<filter id="filter0_f_48_1096" x="0" y="0.200012" width="79.7998" height="76.3" filterUnits="userSpaceOnUse" color-interpolation-filters="sRGB">
<feFlood flood-opacity="0" result="BackgroundImageFix"/>
<feBlend mode="normal" in="SourceGraphic" in2="BackgroundImageFix" result="shape"/>
<feGaussianBlur stdDeviation="3" result="effect1_foregroundBlur_48_1096"/>
</filter>
</defs>
</svg>
