<svg width="84" height="84" viewBox="0 0 84 84" fill="none" xmlns="http://www.w3.org/2000/svg">
<g filter="url(#filter0_f_48_3765)">
<path d="M76.2999 76.5C76.9999 76.1 77.2999 75.3 77.5999 74.5V43.9C76.6999 41.6 75.6999 41 73.0999 41H71.0999V40.2C71.0999 40 71.0999 39.9 71.0999 39.7C70.9999 38.7 70.2999 37.9 69.2999 37.9C68.7999 37.9 68.1999 37.9 67.6999 37.9C66.4999 37.9 65.7999 38.6 65.6999 39.9L65.5999 41H59.1999L59.0999 40.6C58.9999 40.4 58.9999 40.1 58.8999 39.9C58.7999 39.4 58.6999 39 58.4999 38.7C58.2999 38.4 57.8999 38.2 57.5999 37.9C57.4999 37.9 57.4999 37.8 57.3999 37.8L56.7999 38.3L56.6999 37.3V30.8C56.6999 23 56.6999 15.2 56.6999 7.29999C56.6999 6.79999 56.5999 6.40001 56.2999 6.20001H6.3999V77.5H74.5999C74.7999 77.4 74.9999 77.3 75.0999 77.3C75.4999 77 75.8999 76.8 76.2999 76.5ZM66.9999 39.2C67.1999 39 67.4999 38.9 67.8999 38.9H68.3999C68.9999 38.9 69.3999 38.9 69.5999 39.2C69.7999 39.5 69.7999 39.8 69.7999 40.2C69.7999 40.4 69.7999 40.6 69.7999 40.8C69.7999 41.1 69.7999 41.3 69.7999 41.6V42.5C69.7999 42.9 69.7999 43.3 69.7999 43.8C69.7999 44.1 69.7999 44.4 69.4999 44.7C69.2999 44.9 68.9999 45 68.6999 45H68.1999C67.5999 45 67.1999 45 66.8999 44.7C66.5999 44.4 66.5999 44.1 66.6999 43.6C66.6999 43.5 66.6999 43.3 66.6999 43.1C66.6999 42.7 66.6999 42.3 66.6999 41.9C66.6999 41.3 66.6999 40.8 66.6999 40.2C66.6999 39.9 66.7999 39.5 66.9999 39.2ZM58.3999 45.2C58.5999 44.7 58.6999 44.1 58.7999 43.5C58.7999 43.2 58.8999 42.9 58.8999 42.6L58.9999 42.2H65.4999V42.7C65.4999 42.9 65.4999 43.2 65.4999 43.4C65.4999 44.5 65.4999 45.2 66.1999 45.7C66.6999 46.1 67.3999 46.2 68.1999 46.2H68.2999H68.5999C69.9999 46.2 70.3999 45.7 70.5999 45.3C70.7999 44.8 70.8999 44.2 70.9999 43.5C70.9999 43.2 71.0999 42.9 71.1999 42.6L71.2999 42.2H71.6999C71.8999 42.2 72.0999 42.2 72.2999 42.2C72.8999 42.2 73.4999 42.2 73.9999 42.2C75.3999 42.4 76.1999 43.3 76.1999 44.8V47.4V49.2H36.0999V48.7C36.0999 48.3 36.0999 47.8 36.0999 47.4C36.0999 46.4 36.0999 45.3 36.0999 44.2C36.0999 43.2 37.0999 42.4 38.2999 42.3C38.6999 42.3 39.0999 42.3 39.4999 42.3C39.6999 42.3 39.8999 42.3 40.0999 42.3H40.5999V42.8C40.5999 43 40.5999 43.3 40.5999 43.5C40.5999 44.6 40.6999 45.4 41.3999 45.9C41.7999 46.2 42.2999 46.3 42.9999 46.3C43.1999 46.3 43.3999 46.3 43.6999 46.3H44.1999C44.5999 46.3 45.4999 46.2 45.7999 45.3C45.9999 44.8 45.9999 44.3 46.0999 43.7C46.0999 43.4 46.1999 43.1 46.1999 42.8L46.2999 42.4H52.7999V42.9C52.7999 43.1 52.7999 43.4 52.7999 43.6C52.7999 44.6 52.7999 45.4 53.5999 46C54.1999 46.5 54.8999 46.5 55.7999 46.4C55.9999 46.4 56.0999 46.4 56.2999 46.4C57.2999 46.2 58.0999 46 58.3999 45.2ZM45.1999 40.9C45.1999 41.4 45.1999 41.8 45.1999 42.3C45.1999 42.8 45.1999 43.3 45.1999 43.8C45.1999 44.1 45.1999 44.4 44.8999 44.7C44.6999 44.9 44.3999 45 43.9999 45H43.5999C42.8999 45 42.5999 45 42.2999 44.7C41.9999 44.4 41.9999 44.1 42.0999 43.6C42.0999 43.5 42.0999 43.3 42.0999 43.1C42.0999 42.8 42.0999 42.5 42.0999 42.3V41.9V41.4C42.0999 40.9 42.0999 40.5 42.0999 40C42.0999 39.6 42.5999 39 43.0999 39H43.5999C43.7999 39 43.8999 39 44.0999 39C44.4999 39 44.7999 39 44.9999 39.3C45.2999 39.6 45.1999 39.9 45.1999 40.3C45.1999 40.4 45.1999 40.6 45.1999 40.9ZM56.2999 38.9C56.5999 38.9 57.1999 38.9 57.4999 39.5C57.5999 39.8 57.5999 40.2 57.5999 40.9V41.7C57.5999 42.4 57.5999 43.1 57.5999 43.8C57.5999 43.9 57.5999 44.4 57.2999 44.7C57.0999 44.9 56.7999 45 56.4999 45H55.9999C55.2999 45 54.9999 45 54.6999 44.7C54.3999 44.4 54.3999 44.1 54.3999 43.6C54.3999 43.5 54.3999 43.3 54.3999 43.1C54.3999 42.8 54.3999 42.6 54.3999 42.3V41.4C54.3999 40.9 54.3999 40.5 54.3999 40C54.3999 39.3 54.7999 38.9 55.3999 38.9C55.7999 38.9 56.0999 38.9 56.2999 38.9ZM35.0999 63.3C35.0999 66.7 35.0999 70.1 35.0999 73.5C35.0999 73.9 35.1999 74.4 35.1999 74.9C35.1999 75.1 35.2999 75.4 35.2999 75.6L35.3999 76.2H7.59991V7.40002H55.2999V37.7L54.8999 37.8C53.6999 38.1 53.1999 39 53.2999 40.4V41H46.5999L46.4999 39.9C46.3999 38.7 45.6999 38 44.4999 37.9C43.9999 37.9 43.5999 37.9 43.0999 37.9C41.7999 37.9 40.9999 38.7 40.9999 40V41H39.0999C37.9999 41 36.9999 41.4 36.1999 42.1C35.4999 42.8 35.0999 43.8 35.0999 44.9C35.0999 51 35.0999 57.1 35.0999 63.3ZM73.5999 76.2H55.2999H38.9999C37.1999 76.2 36.2999 75.2 36.2999 73.5C36.2999 66.2 36.2999 58.9 36.2999 51.6C36.2999 51.4 36.2999 51.3 36.2999 51.1V50.3H76.3999V73.4C76.3999 75.3 75.3999 76.2 73.5999 76.2Z" fill="#DF00FF"/>
<path d="M29.5 17.2C30 16.7 29.7 16.3 29.6 16.2C29.4 16 29.3 16 29.2 16C29 16 28.8 16.1 28.6 16.3C28.1 16.7 27.6 17.2 27.2 17.6L22.9 21.5L22 20.6C21.6 20.2 21.3 19.8 20.9 19.5C20.5 19.1 20.2 19 19.9 19.3C19.8 19.4 19.7 19.5 19.7 19.7C19.7 19.9 19.8 20.1 20 20.3C20.7 21 21.5 21.8 22.2 22.5C22.8 23.1 22.9 23 23.5 22.5L26.2 20.1V25.2H14.3V14.3H26.5C27.4 14.3 27.4 13.9 27.4 13.7C27.4 13.5 27.3 13.4 27.2 13.3C27.1 13.2 26.8 13.1 26.5 13.1H20.2H13.9C13.2 13.1 13 13.3 13 13.9C13 17.8 13 21.7 13 25.6C13 26.3 13.2 26.5 13.8 26.5H20.1H26.4C27.1 26.5 27.2 26.3 27.2 25.6C27.2 25.2 27.2 24.8 27.2 24.5C27.2 23.6 27.2 22.6 27.2 21.7C27.4 20.3 27.4 18.4 29.5 17.2Z" fill="#DF00FF"/>
<path d="M29.4998 39.3C29.9998 38.8 29.7998 38.4 29.6998 38.3C29.3998 38 29.0999 38 28.7999 38.4C28.2999 38.8 27.8998 39.2 27.3998 39.6L22.9998 43.6L22.0999 42.7C21.6999 42.3 21.3998 41.9 20.9998 41.5C20.5998 41.2 20.3999 41.1 20.0999 41.4C19.9999 41.5 19.8998 41.6 19.8998 41.8C19.8998 42 19.9998 42.2 20.1998 42.4C20.6998 42.9 21.2999 43.5 21.7999 44L22.2999 44.5C22.8999 45.1 23.0998 45.1 23.6998 44.5L26.2999 42.1V47.2H14.4998V36.3H26.6998C27.0998 36.3 27.4998 36.2 27.4998 35.7C27.4998 35.5 27.4998 35.4 27.3998 35.3C27.2998 35.2 26.9998 35.1 26.6998 35.1H20.2999H13.8998C13.2998 35.1 13.0999 35.3 13.0999 35.9C13.0999 39.8 13.0999 43.7 13.0999 47.6C13.0999 48.2 13.2998 48.4 13.8998 48.4H20.4998H26.4998C27.1998 48.4 27.3998 48.2 27.3998 47.6C27.3998 47.2 27.3998 46.8 27.3998 46.5C27.3998 45.6 27.3998 44.6 27.3998 43.7C27.2998 41.6 27.8998 40.2 29.4998 39.3Z" fill="#DF00FF"/>
<path d="M29.6 61.2C29.9 60.9 29.9 60.6 29.7 60.4C29.5 60.1 29.2 60.1 28.8 60.4C28.6 60.5 28.5 60.6 28.4 60.8L23 65.7L22.1 64.8C21.7 64.4 21.3 64 21 63.6C20.7 63.3 20.4 63.3 20.1 63.5C20 63.6 19.9 63.7 19.9 63.9C19.9 64.1 20 64.3 20.2 64.4C20.7 64.9 21.3 65.5 21.8 66L22.3 66.5C22.5 66.7 22.9 67 23.1 67C23.3 67 23.7 66.6 23.9 66.5L26.5 64.2V69.3H14.7V58.4H26.9C27.8 58.4 27.8 58 27.8 57.8C27.8 57.6 27.8 57.5 27.7 57.4C27.6 57.3 27.3 57.2 27 57.2H20.7H14.4C13.7 57.2 13.5 57.4 13.5 58.1C13.5 62 13.5 65.8 13.5 69.7C13.5 70.4 13.7 70.6 14.4 70.6H20.7H27C27.8 70.6 27.9 70.4 27.9 69.7V67.8C27.9 66.5 27.9 65.2 27.9 63.9C27.9 63.5 28.1 63 28.4 62.7C28.7 62.4 29 62.2 29.3 61.9C29.1 61.6 29.4 61.4 29.6 61.2Z" fill="#DF00FF"/>
<path d="M50.8 14.1C50.9 14 50.9 13.9 50.9 13.7C50.9 13.5 50.9 13.1 50 13.1H42.9H35.8C35.5 13.1 35.2 13.2 35.1 13.3C35 13.4 35 13.5 35 13.7C35 13.9 35 14.3 35.9 14.3H43H50.1C50.4 14.3 50.7 14.2 50.8 14.1Z" fill="#DF00FF"/>
<path d="M50.9 19.7C50.9 19.5 50.9 19.4 50.8 19.3C50.7 19.2 50.4 19.1 50.1 19.1H43H35.9C35 19.1 35 19.5 35 19.7C35 19.9 35 20 35.1 20.1C35.2 20.2 35.5 20.3 35.8 20.3H42.9H50C50.9 20.3 50.9 19.9 50.9 19.7Z" fill="#DF00FF"/>
<path d="M41.9999 61.1C41.9999 61.6 42.1999 61.8 42.5999 61.8C44.4999 61.8 46.4999 61.8 48.3999 61.8C48.7999 61.8 48.9999 61.6 48.9999 61.2C48.9999 59.3 48.9999 57.4 48.9999 55.6C48.9999 55.1 48.7999 54.9 48.2999 54.9C47.2999 54.9 46.3999 54.9 45.3999 54.9C44.4999 54.9 43.5999 54.9 42.5999 54.9C42.1999 54.9 41.8999 55 41.8999 55.6C41.8999 56.2 41.8999 56.9 41.8999 57.5V58.3V59.2C41.9999 59.8 41.9999 60.5 41.9999 61.1ZM43.2999 56H47.7999V60.5H43.2999V56Z" fill="#DF00FF"/>
<path d="M68.7 54.8H67.1H65.5C65.2 54.8 64.8 54.8 64.5 54.8C63.8 54.8 63.7 55 63.7 55.6C63.7 57.4 63.7 59.2 63.7 61C63.7 61.6 63.8999 61.7 64.3999 61.7C66.1999 61.7 68.0999 61.7 69.8999 61.7C70.4999 61.7 70.7 61.5 70.7 60.9C70.7 59.1 70.7 57.3 70.7 55.5C70.7 54.9 70.4999 54.7 69.8999 54.7C69.3999 54.8 69.1 54.8 68.7 54.8ZM69.3999 60.5H64.8999V56H69.3999V60.5Z" fill="#DF00FF"/>
<path d="M52.7 61C52.7 61.6 52.8999 61.7 53.3999 61.8C55.1999 61.8 57.0999 61.8 58.8999 61.8C59.4999 61.8 59.6 61.6 59.7 61.1C59.7 59.3 59.7 57.4 59.7 55.6C59.7 55 59.5 54.9 59 54.9C58.1 54.9 57.1 54.9 56.2 54.9C55.3 54.9 54.4 54.9 53.5 54.9C53 54.9 52.8 55 52.8 55.7C52.8 56.3 52.8 57 52.8 57.6V58.4V59.2C52.7 59.8 52.7 60.4 52.7 61ZM54 56H55.8999C56.4999 56 57.1 56 57.7 56C58.1 56 58.5 56.5 58.5 56.9C58.5 57.7 58.5 58.5 58.5 59.3V60.6H54V56Z" fill="#DF00FF"/>
<path d="M63.5999 71C63.5999 71.5 63.7999 71.7 64.2999 71.7C66.1999 71.7 67.9998 71.7 69.8998 71.7C70.3998 71.7 70.5999 71.5 70.5999 71C70.5999 69.1 70.5999 67.3 70.5999 65.4C70.5999 64.8 70.2998 64.7 69.9998 64.7C68.9998 64.7 68.0999 64.7 67.0999 64.7C66.0999 64.7 65.1998 64.7 64.1998 64.7C63.7998 64.7 63.5999 64.8 63.5999 65.4C63.5999 66.1 63.5999 66.7 63.5999 67.4V68.3V69.1C63.5999 69.7 63.5999 70.3 63.5999 71ZM64.8998 65.9H69.3998V70.4H64.8998V65.9Z" fill="#DF00FF"/>
<path d="M42 65.5C42 67.3 42 69.1 42 70.9C42 71.5 42.2 71.7 42.8 71.7C43.2 71.7 43.5 71.7 43.9 71.7H45.6H47.3C47.7 71.7 48 71.7 48.4 71.7C49 71.7 49.1 71.5 49.1 71C49.1 69.2 49.1 67.4 49.1 65.6C49.1 65 48.9 64.8 48.3 64.8C47.4 64.8 46.5 64.8 45.6 64.8C44.7 64.8 43.7 64.8 42.8 64.8C42.2 64.7 42 64.9 42 65.5ZM43.3 65.9H47.8V70.4H43.3V65.9Z" fill="#DF00FF"/>
<path d="M52.7 70.9C52.7 71.6 52.9 71.7 53.5 71.7C55.3 71.7 57.2 71.7 59 71.7C59.6 71.7 59.7 71.5 59.7 71C59.7 69.2 59.7 67.3 59.7 65.5C59.7 64.9 59.4999 64.8 58.8999 64.8C57.9999 64.8 57.1 64.8 56.2 64.8C55.3 64.8 54.4 64.8 53.5 64.8C52.9 64.8 52.8 65 52.8 65.6C52.8 66.2 52.8 66.8 52.8 67.5V68.3V69.1C52.7 69.6 52.7 70.2 52.7 70.9ZM54 65.9H58.5V70.4H54V65.9Z" fill="#DF00FF"/>
</g>
<path d="M76.2999 76.5C76.9999 76.1 77.2999 75.3 77.5999 74.5V43.9C76.6999 41.6 75.6999 41 73.0999 41H71.0999V40.2C71.0999 40 71.0999 39.9 71.0999 39.7C70.9999 38.7 70.2999 37.9 69.2999 37.9C68.7999 37.9 68.1999 37.9 67.6999 37.9C66.4999 37.9 65.7999 38.6 65.6999 39.9L65.5999 41H59.1999L59.0999 40.6C58.9999 40.4 58.9999 40.1 58.8999 39.9C58.7999 39.4 58.6999 39 58.4999 38.7C58.2999 38.4 57.8999 38.2 57.5999 37.9C57.4999 37.9 57.4999 37.8 57.3999 37.8L56.7999 38.3L56.6999 37.3V30.8C56.6999 23 56.6999 15.2 56.6999 7.29999C56.6999 6.79999 56.5999 6.40001 56.2999 6.20001H6.3999V77.5H74.5999C74.7999 77.4 74.9999 77.3 75.0999 77.3C75.4999 77 75.8999 76.8 76.2999 76.5ZM66.9999 39.2C67.1999 39 67.4999 38.9 67.8999 38.9H68.3999C68.9999 38.9 69.3999 38.9 69.5999 39.2C69.7999 39.5 69.7999 39.8 69.7999 40.2C69.7999 40.4 69.7999 40.6 69.7999 40.8C69.7999 41.1 69.7999 41.3 69.7999 41.6V42.5C69.7999 42.9 69.7999 43.3 69.7999 43.8C69.7999 44.1 69.7999 44.4 69.4999 44.7C69.2999 44.9 68.9999 45 68.6999 45H68.1999C67.5999 45 67.1999 45 66.8999 44.7C66.5999 44.4 66.5999 44.1 66.6999 43.6C66.6999 43.5 66.6999 43.3 66.6999 43.1C66.6999 42.7 66.6999 42.3 66.6999 41.9C66.6999 41.3 66.6999 40.8 66.6999 40.2C66.6999 39.9 66.7999 39.5 66.9999 39.2ZM58.3999 45.2C58.5999 44.7 58.6999 44.1 58.7999 43.5C58.7999 43.2 58.8999 42.9 58.8999 42.6L58.9999 42.2H65.4999V42.7C65.4999 42.9 65.4999 43.2 65.4999 43.4C65.4999 44.5 65.4999 45.2 66.1999 45.7C66.6999 46.1 67.3999 46.2 68.1999 46.2H68.2999H68.5999C69.9999 46.2 70.3999 45.7 70.5999 45.3C70.7999 44.8 70.8999 44.2 70.9999 43.5C70.9999 43.2 71.0999 42.9 71.1999 42.6L71.2999 42.2H71.6999C71.8999 42.2 72.0999 42.2 72.2999 42.2C72.8999 42.2 73.4999 42.2 73.9999 42.2C75.3999 42.4 76.1999 43.3 76.1999 44.8V47.4V49.2H36.0999V48.7C36.0999 48.3 36.0999 47.8 36.0999 47.4C36.0999 46.4 36.0999 45.3 36.0999 44.2C36.0999 43.2 37.0999 42.4 38.2999 42.3C38.6999 42.3 39.0999 42.3 39.4999 42.3C39.6999 42.3 39.8999 42.3 40.0999 42.3H40.5999V42.8C40.5999 43 40.5999 43.3 40.5999 43.5C40.5999 44.6 40.6999 45.4 41.3999 45.9C41.7999 46.2 42.2999 46.3 42.9999 46.3C43.1999 46.3 43.3999 46.3 43.6999 46.3H44.1999C44.5999 46.3 45.4999 46.2 45.7999 45.3C45.9999 44.8 45.9999 44.3 46.0999 43.7C46.0999 43.4 46.1999 43.1 46.1999 42.8L46.2999 42.4H52.7999V42.9C52.7999 43.1 52.7999 43.4 52.7999 43.6C52.7999 44.6 52.7999 45.4 53.5999 46C54.1999 46.5 54.8999 46.5 55.7999 46.4C55.9999 46.4 56.0999 46.4 56.2999 46.4C57.2999 46.2 58.0999 46 58.3999 45.2ZM45.1999 40.9C45.1999 41.4 45.1999 41.8 45.1999 42.3C45.1999 42.8 45.1999 43.3 45.1999 43.8C45.1999 44.1 45.1999 44.4 44.8999 44.7C44.6999 44.9 44.3999 45 43.9999 45H43.5999C42.8999 45 42.5999 45 42.2999 44.7C41.9999 44.4 41.9999 44.1 42.0999 43.6C42.0999 43.5 42.0999 43.3 42.0999 43.1C42.0999 42.8 42.0999 42.5 42.0999 42.3V41.9V41.4C42.0999 40.9 42.0999 40.5 42.0999 40C42.0999 39.6 42.5999 39 43.0999 39H43.5999C43.7999 39 43.8999 39 44.0999 39C44.4999 39 44.7999 39 44.9999 39.3C45.2999 39.6 45.1999 39.9 45.1999 40.3C45.1999 40.4 45.1999 40.6 45.1999 40.9ZM56.2999 38.9C56.5999 38.9 57.1999 38.9 57.4999 39.5C57.5999 39.8 57.5999 40.2 57.5999 40.9V41.7C57.5999 42.4 57.5999 43.1 57.5999 43.8C57.5999 43.9 57.5999 44.4 57.2999 44.7C57.0999 44.9 56.7999 45 56.4999 45H55.9999C55.2999 45 54.9999 45 54.6999 44.7C54.3999 44.4 54.3999 44.1 54.3999 43.6C54.3999 43.5 54.3999 43.3 54.3999 43.1C54.3999 42.8 54.3999 42.6 54.3999 42.3V41.4C54.3999 40.9 54.3999 40.5 54.3999 40C54.3999 39.3 54.7999 38.9 55.3999 38.9C55.7999 38.9 56.0999 38.9 56.2999 38.9ZM35.0999 63.3C35.0999 66.7 35.0999 70.1 35.0999 73.5C35.0999 73.9 35.1999 74.4 35.1999 74.9C35.1999 75.1 35.2999 75.4 35.2999 75.6L35.3999 76.2H7.59991V7.40002H55.2999V37.7L54.8999 37.8C53.6999 38.1 53.1999 39 53.2999 40.4V41H46.5999L46.4999 39.9C46.3999 38.7 45.6999 38 44.4999 37.9C43.9999 37.9 43.5999 37.9 43.0999 37.9C41.7999 37.9 40.9999 38.7 40.9999 40V41H39.0999C37.9999 41 36.9999 41.4 36.1999 42.1C35.4999 42.8 35.0999 43.8 35.0999 44.9C35.0999 51 35.0999 57.1 35.0999 63.3ZM73.5999 76.2H55.2999H38.9999C37.1999 76.2 36.2999 75.2 36.2999 73.5C36.2999 66.2 36.2999 58.9 36.2999 51.6C36.2999 51.4 36.2999 51.3 36.2999 51.1V50.3H76.3999V73.4C76.3999 75.3 75.3999 76.2 73.5999 76.2Z" fill="white"/>
<path d="M29.5 17.2C30 16.7 29.7 16.3 29.6 16.2C29.4 16 29.3 16 29.2 16C29 16 28.8 16.1 28.6 16.3C28.1 16.7 27.6 17.2 27.2 17.6L22.9 21.5L22 20.6C21.6 20.2 21.3 19.8 20.9 19.5C20.5 19.1 20.2 19 19.9 19.3C19.8 19.4 19.7 19.5 19.7 19.7C19.7 19.9 19.8 20.1 20 20.3C20.7 21 21.5 21.8 22.2 22.5C22.8 23.1 22.9 23 23.5 22.5L26.2 20.1V25.2H14.3V14.3H26.5C27.4 14.3 27.4 13.9 27.4 13.7C27.4 13.5 27.3 13.4 27.2 13.3C27.1 13.2 26.8 13.1 26.5 13.1H20.2H13.9C13.2 13.1 13 13.3 13 13.9C13 17.8 13 21.7 13 25.6C13 26.3 13.2 26.5 13.8 26.5H20.1H26.4C27.1 26.5 27.2 26.3 27.2 25.6C27.2 25.2 27.2 24.8 27.2 24.5C27.2 23.6 27.2 22.6 27.2 21.7C27.4 20.3 27.4 18.4 29.5 17.2Z" fill="white"/>
<path d="M29.4998 39.3C29.9998 38.8 29.7998 38.4 29.6998 38.3C29.3998 38 29.0999 38 28.7999 38.4C28.2999 38.8 27.8998 39.2 27.3998 39.6L22.9998 43.6L22.0999 42.7C21.6999 42.3 21.3998 41.9 20.9998 41.5C20.5998 41.2 20.3999 41.1 20.0999 41.4C19.9999 41.5 19.8998 41.6 19.8998 41.8C19.8998 42 19.9998 42.2 20.1998 42.4C20.6998 42.9 21.2999 43.5 21.7999 44L22.2999 44.5C22.8999 45.1 23.0998 45.1 23.6998 44.5L26.2999 42.1V47.2H14.4998V36.3H26.6998C27.0998 36.3 27.4998 36.2 27.4998 35.7C27.4998 35.5 27.4998 35.4 27.3998 35.3C27.2998 35.2 26.9998 35.1 26.6998 35.1H20.2999H13.8998C13.2998 35.1 13.0999 35.3 13.0999 35.9C13.0999 39.8 13.0999 43.7 13.0999 47.6C13.0999 48.2 13.2998 48.4 13.8998 48.4H20.4998H26.4998C27.1998 48.4 27.3998 48.2 27.3998 47.6C27.3998 47.2 27.3998 46.8 27.3998 46.5C27.3998 45.6 27.3998 44.6 27.3998 43.7C27.2998 41.6 27.8998 40.2 29.4998 39.3Z" fill="white"/>
<path d="M29.6 61.2C29.9 60.9 29.9 60.6 29.7 60.4C29.5 60.1 29.2 60.1 28.8 60.4C28.6 60.5 28.5 60.6 28.4 60.8L23 65.7L22.1 64.8C21.7 64.4 21.3 64 21 63.6C20.7 63.3 20.4 63.3 20.1 63.5C20 63.6 19.9 63.7 19.9 63.9C19.9 64.1 20 64.3 20.2 64.4C20.7 64.9 21.3 65.5 21.8 66L22.3 66.5C22.5 66.7 22.9 67 23.1 67C23.3 67 23.7 66.6 23.9 66.5L26.5 64.2V69.3H14.7V58.4H26.9C27.8 58.4 27.8 58 27.8 57.8C27.8 57.6 27.8 57.5 27.7 57.4C27.6 57.3 27.3 57.2 27 57.2H20.7H14.4C13.7 57.2 13.5 57.4 13.5 58.1C13.5 62 13.5 65.8 13.5 69.7C13.5 70.4 13.7 70.6 14.4 70.6H20.7H27C27.8 70.6 27.9 70.4 27.9 69.7V67.8C27.9 66.5 27.9 65.2 27.9 63.9C27.9 63.5 28.1 63 28.4 62.7C28.7 62.4 29 62.2 29.3 61.9C29.1 61.6 29.4 61.4 29.6 61.2Z" fill="white"/>
<path d="M50.8 14.1C50.9 14 50.9 13.9 50.9 13.7C50.9 13.5 50.9 13.1 50 13.1H42.9H35.8C35.5 13.1 35.2 13.2 35.1 13.3C35 13.4 35 13.5 35 13.7C35 13.9 35 14.3 35.9 14.3H43H50.1C50.4 14.3 50.7 14.2 50.8 14.1Z" fill="white"/>
<path d="M50.9 19.7C50.9 19.5 50.9 19.4 50.8 19.3C50.7 19.2 50.4 19.1 50.1 19.1H43H35.9C35 19.1 35 19.5 35 19.7C35 19.9 35 20 35.1 20.1C35.2 20.2 35.5 20.3 35.8 20.3H42.9H50C50.9 20.3 50.9 19.9 50.9 19.7Z" fill="white"/>
<path d="M41.9999 61.1C41.9999 61.6 42.1999 61.8 42.5999 61.8C44.4999 61.8 46.4999 61.8 48.3999 61.8C48.7999 61.8 48.9999 61.6 48.9999 61.2C48.9999 59.3 48.9999 57.4 48.9999 55.6C48.9999 55.1 48.7999 54.9 48.2999 54.9C47.2999 54.9 46.3999 54.9 45.3999 54.9C44.4999 54.9 43.5999 54.9 42.5999 54.9C42.1999 54.9 41.8999 55 41.8999 55.6C41.8999 56.2 41.8999 56.9 41.8999 57.5V58.3V59.2C41.9999 59.8 41.9999 60.5 41.9999 61.1ZM43.2999 56H47.7999V60.5H43.2999V56Z" fill="white"/>
<path d="M68.7 54.8H67.1H65.5C65.2 54.8 64.8 54.8 64.5 54.8C63.8 54.8 63.7 55 63.7 55.6C63.7 57.4 63.7 59.2 63.7 61C63.7 61.6 63.8999 61.7 64.3999 61.7C66.1999 61.7 68.0999 61.7 69.8999 61.7C70.4999 61.7 70.7 61.5 70.7 60.9C70.7 59.1 70.7 57.3 70.7 55.5C70.7 54.9 70.4999 54.7 69.8999 54.7C69.3999 54.8 69.1 54.8 68.7 54.8ZM69.3999 60.5H64.8999V56H69.3999V60.5Z" fill="white"/>
<path d="M52.7 61C52.7 61.6 52.8999 61.7 53.3999 61.8C55.1999 61.8 57.0999 61.8 58.8999 61.8C59.4999 61.8 59.6 61.6 59.7 61.1C59.7 59.3 59.7 57.4 59.7 55.6C59.7 55 59.5 54.9 59 54.9C58.1 54.9 57.1 54.9 56.2 54.9C55.3 54.9 54.4 54.9 53.5 54.9C53 54.9 52.8 55 52.8 55.7C52.8 56.3 52.8 57 52.8 57.6V58.4V59.2C52.7 59.8 52.7 60.4 52.7 61ZM54 56H55.8999C56.4999 56 57.1 56 57.7 56C58.1 56 58.5 56.5 58.5 56.9C58.5 57.7 58.5 58.5 58.5 59.3V60.6H54V56Z" fill="white"/>
<path d="M63.5999 71C63.5999 71.5 63.7999 71.7 64.2999 71.7C66.1999 71.7 67.9998 71.7 69.8998 71.7C70.3998 71.7 70.5999 71.5 70.5999 71C70.5999 69.1 70.5999 67.3 70.5999 65.4C70.5999 64.8 70.2998 64.7 69.9998 64.7C68.9998 64.7 68.0999 64.7 67.0999 64.7C66.0999 64.7 65.1998 64.7 64.1998 64.7C63.7998 64.7 63.5999 64.8 63.5999 65.4C63.5999 66.1 63.5999 66.7 63.5999 67.4V68.3V69.1C63.5999 69.7 63.5999 70.3 63.5999 71ZM64.8998 65.9H69.3998V70.4H64.8998V65.9Z" fill="white"/>
<path d="M42 65.5C42 67.3 42 69.1 42 70.9C42 71.5 42.2 71.7 42.8 71.7C43.2 71.7 43.5 71.7 43.9 71.7H45.6H47.3C47.7 71.7 48 71.7 48.4 71.7C49 71.7 49.1 71.5 49.1 71C49.1 69.2 49.1 67.4 49.1 65.6C49.1 65 48.9 64.8 48.3 64.8C47.4 64.8 46.5 64.8 45.6 64.8C44.7 64.8 43.7 64.8 42.8 64.8C42.2 64.7 42 64.9 42 65.5ZM43.3 65.9H47.8V70.4H43.3V65.9Z" fill="white"/>
<path d="M52.7 70.9C52.7 71.6 52.9 71.7 53.5 71.7C55.3 71.7 57.2 71.7 59 71.7C59.6 71.7 59.7 71.5 59.7 71C59.7 69.2 59.7 67.3 59.7 65.5C59.7 64.9 59.4999 64.8 58.8999 64.8C57.9999 64.8 57.1 64.8 56.2 64.8C55.3 64.8 54.4 64.8 53.5 64.8C52.9 64.8 52.8 65 52.8 65.6C52.8 66.2 52.8 66.8 52.8 67.5V68.3V69.1C52.7 69.6 52.7 70.2 52.7 70.9ZM54 65.9H58.5V70.4H54V65.9Z" fill="white"/>
<defs>
<filter id="filter0_f_48_3765" x="0.399902" y="0.200012" width="83.2" height="83.3" filterUnits="userSpaceOnUse" color-interpolation-filters="sRGB">
<feFlood flood-opacity="0" result="BackgroundImageFix"/>
<feBlend mode="normal" in="SourceGraphic" in2="BackgroundImageFix" result="shape"/>
<feGaussianBlur stdDeviation="3" result="effect1_foregroundBlur_48_3765"/>
</filter>
</defs>
</svg>
