<svg width="76" height="78" viewBox="0 0 76 78" fill="none" xmlns="http://www.w3.org/2000/svg">
<g filter="url(#filter0_f_48_4068)">
<path d="M18.7996 6.19995C32.1996 6.19995 45.4996 6.19995 58.8996 6.19995C59.0996 6.59995 59.3996 6.99994 59.3996 7.49994C59.3996 9.99994 59.3996 12.5999 59.3996 15.0999C59.3996 15.2999 59.3996 15.5999 59.3996 15.7999C61.0996 15.7999 62.5996 15.7999 64.1996 15.7999C65.3996 15.7999 65.6996 16.0999 65.6996 17.2999C65.6996 19.3999 65.6996 21.5 65.6996 23.7C65.6996 24.1 65.6996 24.5999 65.6996 24.9999C65.7996 24.9999 65.8996 25.0999 65.8996 25.0999C68.6996 25.7999 69.8996 27.3 69.8996 30.2C69.8996 42.4 69.8996 54.5999 69.8996 66.7999C69.8996 67.3999 69.8996 67.8999 69.6996 68.4999C69.0996 70.7999 67.3996 71.9999 64.8996 71.9999C47.1996 71.9999 29.3996 71.9999 11.6996 71.9999C8.4996 71.9999 6.59961 70.0999 6.59961 66.8999C6.59961 57.0999 6.59961 47.1999 6.59961 37.3999C6.59961 37.0999 6.59961 36.7999 6.59961 36.5999C6.79961 34.3999 8.39961 32.6999 10.5996 32.3999C11.0996 32.2999 11.4996 32.2999 11.9996 32.2999C11.9996 31.9999 11.9996 31.6999 11.9996 31.4999C11.9996 26.8999 11.9996 22.3 11.9996 17.7C11.9996 17.5 11.9996 17.4 11.9996 17.2C11.9996 16.3 12.3996 15.9999 13.1996 15.9999C14.3996 15.9999 15.5996 15.9999 16.7996 15.9999C17.2996 15.9999 17.6996 15.9999 18.2996 15.9999C18.2996 15.6999 18.2996 15.5 18.2996 15.2C18.2996 12.7 18.2996 10.2 18.2996 7.69995C18.2996 7.09995 18.5996 6.69995 18.7996 6.19995ZM51.0996 17.7999C38.6996 17.7999 26.3996 17.7999 13.9996 17.7999C13.9996 22.5999 13.9996 27.4 13.9996 32.2C14.2996 32.2 14.4996 32.2 14.6996 32.2C15.4996 32.2 15.8996 32.6 15.8996 33.2C15.8996 33.8 15.4996 34.2 14.6996 34.2C13.5996 34.2 12.5996 34.2 11.4996 34.2C9.4996 34.2 8.4996 35.3 8.4996 37.2C8.4996 47.1 8.4996 57.0999 8.4996 66.9999C8.4996 68.8999 9.5996 69.9999 11.4996 69.9999C26.6996 69.9999 41.9996 69.9999 57.1996 69.9999C59.0996 69.9999 60.1996 68.8999 60.1996 66.9999C60.1996 54.5999 60.1996 42.2999 60.1996 29.8999C60.1996 27.9999 59.0996 26.8999 57.1996 26.8999C54.3996 26.8999 51.5996 26.8999 48.7996 26.8999C46.2996 26.8999 43.8996 26.8999 41.3996 26.8999C39.7996 26.8999 38.6996 27.8999 38.5996 29.3999C38.3996 32.4999 36.5996 34.0999 33.4996 34.0999C28.7996 34.0999 24.0996 34.0999 19.3996 34.0999C19.1996 34.0999 18.9996 34.0999 18.7996 34.0999C18.2996 33.9999 17.9996 33.7 17.9996 33.2C17.9996 32.7 18.1996 32.4 18.6996 32.2C18.9996 32.1 19.1996 32.0999 19.4996 32.0999C24.2996 32.0999 28.9996 32.0999 33.7996 32.0999C35.5996 32.0999 36.5996 31.1999 36.6996 29.3999C36.8996 26.5999 38.7996 24.8999 41.5996 24.8999C44.5996 24.8999 47.4996 24.8999 50.4996 24.8999C50.6996 24.8999 50.9996 24.8999 51.1996 24.8999C51.0996 22.5999 51.0996 20.1999 51.0996 17.7999ZM20.2996 15.7999C20.5996 15.7999 20.8996 15.7999 21.1996 15.7999C31.2996 15.7999 41.4996 15.7999 51.5996 15.7999C52.7996 15.7999 53.0996 16.0999 53.0996 17.2999C53.0996 19.4999 53.0996 21.5999 53.0996 23.7999C53.0996 24.1999 53.0996 24.5999 53.0996 24.9999C54.5996 24.9999 55.9996 24.9999 57.3996 24.9999C57.3996 19.3999 57.3996 13.8 57.3996 8.19995C44.9996 8.19995 32.6996 8.19995 20.2996 8.19995C20.2996 10.7 20.2996 13.1999 20.2996 15.7999ZM59.3996 17.7999C59.3996 20.2999 59.3996 22.6999 59.3996 25.0999C59.3996 25.2999 59.4996 25.4999 59.6996 25.4999C61.4996 26.4999 62.1996 28.0999 62.1996 30.0999C62.1996 41.6999 62.1996 53.2999 62.1996 64.8999C62.1996 65.1999 62.1996 65.4 62.1996 65.7C62.7996 65.7 63.2996 65.7 63.7996 65.7C63.7996 65.4 63.7996 65.0999 63.7996 64.7999C63.7996 56.9999 63.7996 49.1999 63.7996 41.2999C63.7996 40.2999 64.0996 39.7999 64.7996 39.7999C65.4996 39.7999 65.7996 40.2999 65.7996 41.2999C65.7996 45.8999 65.7996 50.3999 65.7996 54.9999C65.7996 58.2999 65.7996 61.5999 65.7996 64.7999C65.7996 67.8999 65.7996 67.5999 62.9996 67.5999C62.7996 67.5999 62.4996 67.5999 62.2996 67.5999C61.9996 68.3999 61.7996 69.0999 61.4996 69.8999C62.5996 69.8999 63.7996 69.8999 64.8996 69.8999C66.7996 69.9999 67.9996 68.7999 67.9996 66.7999C67.9996 54.4999 67.9996 42.1999 67.9996 29.9999C67.9996 29.6999 67.9996 29.4 67.9996 29.2C67.8996 28 66.7996 26.9999 65.7996 27.0999C65.7996 27.2999 65.7996 27.5999 65.7996 27.7999C65.7996 30.5999 65.7996 33.4999 65.7996 36.2999C65.7996 36.5999 65.7996 36.8999 65.6996 37.0999C65.5996 37.4999 65.2996 37.7999 64.7996 37.7999C64.2996 37.7999 63.9996 37.5999 63.8996 37.0999C63.7996 36.7999 63.7996 36.5 63.7996 36.2C63.7996 30.3 63.7996 24.3999 63.7996 18.4999C63.7996 18.1999 63.7996 18 63.7996 17.7C62.2996 17.8 60.8996 17.7999 59.3996 17.7999Z" fill="#DF00FF"/>
<path d="M46.1996 46.7C42.9996 46.7 39.8996 46.7 36.6996 46.7C35.3996 46.7 35.0996 46.3999 35.0996 45.0999C35.0996 42.9999 35.0996 40.9999 35.0996 38.8999C35.0996 37.7999 35.3996 37.4999 36.5996 37.4999C43.0996 37.4999 49.4996 37.4999 55.9996 37.4999C57.0996 37.4999 57.3996 37.7999 57.3996 38.9999C57.3996 41.0999 57.3996 43.1999 57.3996 45.2999C57.3996 46.3999 57.0996 46.7 55.8996 46.7C52.7996 46.7 49.4996 46.7 46.1996 46.7ZM55.4996 44.7C55.4996 42.9 55.4996 41.1999 55.4996 39.4999C49.3996 39.4999 43.2996 39.4999 37.1996 39.4999C37.1996 41.2999 37.1996 43 37.1996 44.7C43.2996 44.7 49.2996 44.7 55.4996 44.7Z" fill="#DF00FF"/>
<path d="M30.8997 22.7999C27.1997 22.7999 23.3997 22.7999 19.6997 22.7999C19.4997 22.7999 19.1997 22.7999 18.9997 22.7999C18.4997 22.6999 18.1997 22.3999 18.1997 21.8999C18.1997 21.3999 18.4997 21.0999 18.8997 20.9999C19.0997 20.8999 19.3997 20.9999 19.5997 20.9999C27.0997 20.9999 34.5997 20.9999 42.0997 20.9999C42.1997 20.9999 42.2997 20.9999 42.3997 20.9999C43.0997 20.9999 43.5997 21.3999 43.5997 21.9999C43.5997 22.5999 43.1997 22.9999 42.3997 22.9999C39.9997 22.9999 37.5997 22.9999 35.0997 22.9999C33.6997 22.7999 32.2997 22.7999 30.8997 22.7999Z" fill="#DF00FF"/>
<path d="M25.8995 27.7C23.6995 27.7 21.4995 27.7 19.2995 27.7C18.7995 27.7 18.3995 27.5999 18.2995 27.0999C18.1995 26.7999 18.2995 26.2999 18.4995 26.0999C18.6995 25.8999 19.1995 25.7 19.4995 25.7C23.0995 25.7 26.6995 25.7 30.2995 25.7C30.8995 25.7 31.5995 25.7 32.1995 25.7C33.0995 25.7 33.4995 26 33.4995 26.7C33.4995 27.3 32.9995 27.7 32.1995 27.7C30.0995 27.7 27.9995 27.7 25.8995 27.7Z" fill="#DF00FF"/>
</g>
<path d="M18.7996 6.19995C32.1996 6.19995 45.4996 6.19995 58.8996 6.19995C59.0996 6.59995 59.3996 6.99994 59.3996 7.49994C59.3996 9.99994 59.3996 12.5999 59.3996 15.0999C59.3996 15.2999 59.3996 15.5999 59.3996 15.7999C61.0996 15.7999 62.5996 15.7999 64.1996 15.7999C65.3996 15.7999 65.6996 16.0999 65.6996 17.2999C65.6996 19.3999 65.6996 21.5 65.6996 23.7C65.6996 24.1 65.6996 24.5999 65.6996 24.9999C65.7996 24.9999 65.8996 25.0999 65.8996 25.0999C68.6996 25.7999 69.8996 27.3 69.8996 30.2C69.8996 42.4 69.8996 54.5999 69.8996 66.7999C69.8996 67.3999 69.8996 67.8999 69.6996 68.4999C69.0996 70.7999 67.3996 71.9999 64.8996 71.9999C47.1996 71.9999 29.3996 71.9999 11.6996 71.9999C8.4996 71.9999 6.59961 70.0999 6.59961 66.8999C6.59961 57.0999 6.59961 47.1999 6.59961 37.3999C6.59961 37.0999 6.59961 36.7999 6.59961 36.5999C6.79961 34.3999 8.39961 32.6999 10.5996 32.3999C11.0996 32.2999 11.4996 32.2999 11.9996 32.2999C11.9996 31.9999 11.9996 31.6999 11.9996 31.4999C11.9996 26.8999 11.9996 22.3 11.9996 17.7C11.9996 17.5 11.9996 17.4 11.9996 17.2C11.9996 16.3 12.3996 15.9999 13.1996 15.9999C14.3996 15.9999 15.5996 15.9999 16.7996 15.9999C17.2996 15.9999 17.6996 15.9999 18.2996 15.9999C18.2996 15.6999 18.2996 15.5 18.2996 15.2C18.2996 12.7 18.2996 10.2 18.2996 7.69995C18.2996 7.09995 18.5996 6.69995 18.7996 6.19995ZM51.0996 17.7999C38.6996 17.7999 26.3996 17.7999 13.9996 17.7999C13.9996 22.5999 13.9996 27.4 13.9996 32.2C14.2996 32.2 14.4996 32.2 14.6996 32.2C15.4996 32.2 15.8996 32.6 15.8996 33.2C15.8996 33.8 15.4996 34.2 14.6996 34.2C13.5996 34.2 12.5996 34.2 11.4996 34.2C9.4996 34.2 8.4996 35.3 8.4996 37.2C8.4996 47.1 8.4996 57.0999 8.4996 66.9999C8.4996 68.8999 9.5996 69.9999 11.4996 69.9999C26.6996 69.9999 41.9996 69.9999 57.1996 69.9999C59.0996 69.9999 60.1996 68.8999 60.1996 66.9999C60.1996 54.5999 60.1996 42.2999 60.1996 29.8999C60.1996 27.9999 59.0996 26.8999 57.1996 26.8999C54.3996 26.8999 51.5996 26.8999 48.7996 26.8999C46.2996 26.8999 43.8996 26.8999 41.3996 26.8999C39.7996 26.8999 38.6996 27.8999 38.5996 29.3999C38.3996 32.4999 36.5996 34.0999 33.4996 34.0999C28.7996 34.0999 24.0996 34.0999 19.3996 34.0999C19.1996 34.0999 18.9996 34.0999 18.7996 34.0999C18.2996 33.9999 17.9996 33.7 17.9996 33.2C17.9996 32.7 18.1996 32.4 18.6996 32.2C18.9996 32.1 19.1996 32.0999 19.4996 32.0999C24.2996 32.0999 28.9996 32.0999 33.7996 32.0999C35.5996 32.0999 36.5996 31.1999 36.6996 29.3999C36.8996 26.5999 38.7996 24.8999 41.5996 24.8999C44.5996 24.8999 47.4996 24.8999 50.4996 24.8999C50.6996 24.8999 50.9996 24.8999 51.1996 24.8999C51.0996 22.5999 51.0996 20.1999 51.0996 17.7999ZM20.2996 15.7999C20.5996 15.7999 20.8996 15.7999 21.1996 15.7999C31.2996 15.7999 41.4996 15.7999 51.5996 15.7999C52.7996 15.7999 53.0996 16.0999 53.0996 17.2999C53.0996 19.4999 53.0996 21.5999 53.0996 23.7999C53.0996 24.1999 53.0996 24.5999 53.0996 24.9999C54.5996 24.9999 55.9996 24.9999 57.3996 24.9999C57.3996 19.3999 57.3996 13.8 57.3996 8.19995C44.9996 8.19995 32.6996 8.19995 20.2996 8.19995C20.2996 10.7 20.2996 13.1999 20.2996 15.7999ZM59.3996 17.7999C59.3996 20.2999 59.3996 22.6999 59.3996 25.0999C59.3996 25.2999 59.4996 25.4999 59.6996 25.4999C61.4996 26.4999 62.1996 28.0999 62.1996 30.0999C62.1996 41.6999 62.1996 53.2999 62.1996 64.8999C62.1996 65.1999 62.1996 65.4 62.1996 65.7C62.7996 65.7 63.2996 65.7 63.7996 65.7C63.7996 65.4 63.7996 65.0999 63.7996 64.7999C63.7996 56.9999 63.7996 49.1999 63.7996 41.2999C63.7996 40.2999 64.0996 39.7999 64.7996 39.7999C65.4996 39.7999 65.7996 40.2999 65.7996 41.2999C65.7996 45.8999 65.7996 50.3999 65.7996 54.9999C65.7996 58.2999 65.7996 61.5999 65.7996 64.7999C65.7996 67.8999 65.7996 67.5999 62.9996 67.5999C62.7996 67.5999 62.4996 67.5999 62.2996 67.5999C61.9996 68.3999 61.7996 69.0999 61.4996 69.8999C62.5996 69.8999 63.7996 69.8999 64.8996 69.8999C66.7996 69.9999 67.9996 68.7999 67.9996 66.7999C67.9996 54.4999 67.9996 42.1999 67.9996 29.9999C67.9996 29.6999 67.9996 29.4 67.9996 29.2C67.8996 28 66.7996 26.9999 65.7996 27.0999C65.7996 27.2999 65.7996 27.5999 65.7996 27.7999C65.7996 30.5999 65.7996 33.4999 65.7996 36.2999C65.7996 36.5999 65.7996 36.8999 65.6996 37.0999C65.5996 37.4999 65.2996 37.7999 64.7996 37.7999C64.2996 37.7999 63.9996 37.5999 63.8996 37.0999C63.7996 36.7999 63.7996 36.5 63.7996 36.2C63.7996 30.3 63.7996 24.3999 63.7996 18.4999C63.7996 18.1999 63.7996 18 63.7996 17.7C62.2996 17.8 60.8996 17.7999 59.3996 17.7999Z" fill="white"/>
<path d="M46.1996 46.7C42.9996 46.7 39.8996 46.7 36.6996 46.7C35.3996 46.7 35.0996 46.3999 35.0996 45.0999C35.0996 42.9999 35.0996 40.9999 35.0996 38.8999C35.0996 37.7999 35.3996 37.4999 36.5996 37.4999C43.0996 37.4999 49.4996 37.4999 55.9996 37.4999C57.0996 37.4999 57.3996 37.7999 57.3996 38.9999C57.3996 41.0999 57.3996 43.1999 57.3996 45.2999C57.3996 46.3999 57.0996 46.7 55.8996 46.7C52.7996 46.7 49.4996 46.7 46.1996 46.7ZM55.4996 44.7C55.4996 42.9 55.4996 41.1999 55.4996 39.4999C49.3996 39.4999 43.2996 39.4999 37.1996 39.4999C37.1996 41.2999 37.1996 43 37.1996 44.7C43.2996 44.7 49.2996 44.7 55.4996 44.7Z" fill="white"/>
<path d="M30.8997 22.7999C27.1997 22.7999 23.3997 22.7999 19.6997 22.7999C19.4997 22.7999 19.1997 22.7999 18.9997 22.7999C18.4997 22.6999 18.1997 22.3999 18.1997 21.8999C18.1997 21.3999 18.4997 21.0999 18.8997 20.9999C19.0997 20.8999 19.3997 20.9999 19.5997 20.9999C27.0997 20.9999 34.5997 20.9999 42.0997 20.9999C42.1997 20.9999 42.2997 20.9999 42.3997 20.9999C43.0997 20.9999 43.5997 21.3999 43.5997 21.9999C43.5997 22.5999 43.1997 22.9999 42.3997 22.9999C39.9997 22.9999 37.5997 22.9999 35.0997 22.9999C33.6997 22.7999 32.2997 22.7999 30.8997 22.7999Z" fill="white"/>
<path d="M25.8995 27.7C23.6995 27.7 21.4995 27.7 19.2995 27.7C18.7995 27.7 18.3995 27.5999 18.2995 27.0999C18.1995 26.7999 18.2995 26.2999 18.4995 26.0999C18.6995 25.8999 19.1995 25.7 19.4995 25.7C23.0995 25.7 26.6995 25.7 30.2995 25.7C30.8995 25.7 31.5995 25.7 32.1995 25.7C33.0995 25.7 33.4995 26 33.4995 26.7C33.4995 27.3 32.9995 27.7 32.1995 27.7C30.0995 27.7 27.9995 27.7 25.8995 27.7Z" fill="white"/>
<defs>
<filter id="filter0_f_48_4068" x="0.599609" y="0.199951" width="75.3" height="77.8" filterUnits="userSpaceOnUse" color-interpolation-filters="sRGB">
<feFlood flood-opacity="0" result="BackgroundImageFix"/>
<feBlend mode="normal" in="SourceGraphic" in2="BackgroundImageFix" result="shape"/>
<feGaussianBlur stdDeviation="3" result="effect1_foregroundBlur_48_4068"/>
</filter>
</defs>
</svg>
