<svg width="31" height="31" viewBox="0 0 31 31" fill="none" xmlns="http://www.w3.org/2000/svg">
<path d="M15.7 0.600098C7.40001 0.600098 0.700012 7.3001 0.700012 15.6001C0.700012 23.9001 7.40001 30.6001 15.7 30.6001C24 30.6001 30.7 23.9001 30.7 15.6001C30.7 7.3001 23.9 0.600098 15.7 0.600098ZM15.7 5.1001C18.4 5.1001 20.7 7.3001 20.7 10.1001C20.7 12.8001 18.5 15.1001 15.7 15.1001C13 15.1001 10.7 12.9001 10.7 10.1001C10.7 7.3001 12.9 5.1001 15.7 5.1001ZM15.7 26.7001C13 26.7001 10.5001 25.7001 8.50006 24.1001C8.00006 23.7001 7.80011 23.1001 7.80011 22.5001C7.80011 19.7001 10.0001 17.5001 12.8001 17.5001H18.6C21.4 17.5001 23.6 19.7001 23.6 22.5001C23.6 23.1001 23.3001 23.7001 22.9001 24.1001C20.9001 25.7001 18.4 26.7001 15.7 26.7001Z" fill="white"/>
</svg>
