<svg width="27" height="27" viewBox="0 0 27 27" fill="none" xmlns="http://www.w3.org/2000/svg">
<path d="M13.0725 26.3999C20.2522 26.3999 26.0725 20.5796 26.0725 13.3999C26.0725 6.2202 20.2522 0.399902 13.0725 0.399902C5.89281 0.399902 0.0725098 6.2202 0.0725098 13.3999C0.0725098 20.5796 5.89281 26.3999 13.0725 26.3999Z" fill="white"/>
<path d="M5.97257 13.3C9.77257 11.6 12.2725 10.6 13.5725 10C17.1725 8.5 17.9726 8.19995 18.3726 8.19995C18.4726 8.19995 18.6726 8.1999 18.8726 8.3999C18.9726 8.4999 19.0725 8.70005 19.0725 8.80005C19.0725 8.90005 19.0725 9.10005 19.0725 9.30005C18.8725 11.4 18.0725 16.3001 17.5725 18.6001C17.3725 19.6001 17.0725 19.8999 16.6725 19.8999C15.8725 19.9999 15.3725 19.3999 14.5725 18.8999C13.4725 18.0999 12.7725 17.7 11.6725 17C10.3725 16.2 11.1726 15.6999 11.9726 14.8999C12.1726 14.6999 15.4725 11.6999 15.5725 11.3999C15.5725 11.3999 15.5726 11.2 15.4726 11.2C15.3726 11.1 15.2725 11.2 15.1725 11.2C15.0725 11.2 13.2725 12.4 9.67252 14.8C9.17252 15.2 8.67249 15.3 8.27249 15.3C7.77249 15.3 6.87249 15 6.27249 14.8C5.47249 14.5 4.77259 14.3999 4.87259 13.8999C5.07259 13.6999 5.37257 13.5 5.97257 13.3Z" fill="#2F65F6"/>
</svg>
