<svg width="27" height="27" viewBox="0 0 27 27" fill="none" xmlns="http://www.w3.org/2000/svg">
<path d="M13.6725 26.3999C20.8522 26.3999 26.6725 20.5796 26.6725 13.3999C26.6725 6.2202 20.8522 0.399902 13.6725 0.399902C6.49278 0.399902 0.672485 6.2202 0.672485 13.3999C0.672485 20.5796 6.49278 26.3999 13.6725 26.3999Z" fill="white"/>
<path d="M14.4725 18.8C8.57253 18.8 5.17253 14.7 4.97253 8H7.97253C8.07253 13 10.2725 15.1 11.9725 15.5V8H14.7725V12.3C16.4725 12.1 18.2726 10.2 18.8726 8H21.6725C21.1725 10.7 19.2726 12.5999 17.8726 13.3999C19.2726 14.0999 21.4726 15.8 22.3726 18.8H19.2725C18.5725 16.7 16.9725 15.0999 14.7725 14.8999V18.8H14.4725Z" fill="#2F65F6"/>
</svg>
